<mxfile host="app.diagrams.net" agent="Mozilla/5.0 (Windows NT 10.0; Win64; x64) AppleWebKit/537.36 (KHTML, like Gecko) Chrome/131.0.0.0 Safari/537.36" version="25.0.3" pages="3">
  <diagram name="diagramme de usecase" id="26KtrjRuUsVt5BbqYtNC">
    <mxGraphModel dx="2514" dy="2680" grid="1" gridSize="10" guides="1" tooltips="1" connect="1" arrows="1" fold="1" page="1" pageScale="1" pageWidth="827" pageHeight="1169" math="0" shadow="0">
      <root>
        <mxCell id="0" />
        <mxCell id="1" parent="0" />
        <mxCell id="9CapiTV6LvwFViI8SrRo-19" style="rounded=0;orthogonalLoop=1;jettySize=auto;html=1;entryX=0;entryY=0.5;entryDx=0;entryDy=0;" parent="1" source="9CapiTV6LvwFViI8SrRo-1" target="9CapiTV6LvwFViI8SrRo-18" edge="1">
          <mxGeometry relative="1" as="geometry" />
        </mxCell>
        <mxCell id="9CapiTV6LvwFViI8SrRo-62" style="rounded=0;orthogonalLoop=1;jettySize=auto;html=1;" parent="1" source="9CapiTV6LvwFViI8SrRo-1" target="9CapiTV6LvwFViI8SrRo-38" edge="1">
          <mxGeometry relative="1" as="geometry" />
        </mxCell>
        <mxCell id="9CapiTV6LvwFViI8SrRo-1" value="User&lt;div&gt;&lt;br&gt;&lt;/div&gt;" style="shape=umlActor;verticalLabelPosition=bottom;verticalAlign=top;html=1;" parent="1" vertex="1">
          <mxGeometry x="710" y="-550" width="30" height="60" as="geometry" />
        </mxCell>
        <mxCell id="9CapiTV6LvwFViI8SrRo-3" value="Personnel" style="shape=umlActor;verticalLabelPosition=bottom;verticalAlign=top;html=1;" parent="1" vertex="1">
          <mxGeometry x="650" y="-440" width="30" height="60" as="geometry" />
        </mxCell>
        <mxCell id="9CapiTV6LvwFViI8SrRo-4" value="Student" style="shape=umlActor;verticalLabelPosition=bottom;verticalAlign=top;html=1;" parent="1" vertex="1">
          <mxGeometry x="570" y="-750" width="30" height="60" as="geometry" />
        </mxCell>
        <mxCell id="9CapiTV6LvwFViI8SrRo-65" style="rounded=0;orthogonalLoop=1;jettySize=auto;html=1;entryX=0;entryY=0.5;entryDx=0;entryDy=0;" parent="1" source="9CapiTV6LvwFViI8SrRo-6" target="9CapiTV6LvwFViI8SrRo-21" edge="1">
          <mxGeometry relative="1" as="geometry" />
        </mxCell>
        <mxCell id="9CapiTV6LvwFViI8SrRo-68" style="rounded=0;orthogonalLoop=1;jettySize=auto;html=1;entryX=0;entryY=1;entryDx=0;entryDy=0;" parent="1" source="9CapiTV6LvwFViI8SrRo-6" target="9CapiTV6LvwFViI8SrRo-30" edge="1">
          <mxGeometry relative="1" as="geometry" />
        </mxCell>
        <mxCell id="9CapiTV6LvwFViI8SrRo-6" value="Programs director" style="shape=umlActor;verticalLabelPosition=bottom;verticalAlign=top;html=1;" parent="1" vertex="1">
          <mxGeometry x="610" y="-80" width="30" height="60" as="geometry" />
        </mxCell>
        <mxCell id="9CapiTV6LvwFViI8SrRo-7" value="Tutor" style="shape=umlActor;verticalLabelPosition=bottom;verticalAlign=top;html=1;" parent="1" vertex="1">
          <mxGeometry x="470" y="-630" width="30" height="60" as="geometry" />
        </mxCell>
        <mxCell id="9CapiTV6LvwFViI8SrRo-8" value="&lt;div&gt;DisciplinaryOfficer&lt;/div&gt;&lt;div&gt;&lt;br&gt;&lt;/div&gt;" style="shape=umlActor;verticalLabelPosition=bottom;verticalAlign=top;html=1;" parent="1" vertex="1">
          <mxGeometry x="430" y="-350" width="30" height="60" as="geometry" />
        </mxCell>
        <mxCell id="9CapiTV6LvwFViI8SrRo-64" style="rounded=0;orthogonalLoop=1;jettySize=auto;html=1;entryX=0;entryY=0.5;entryDx=0;entryDy=0;" parent="1" source="9CapiTV6LvwFViI8SrRo-10" target="9CapiTV6LvwFViI8SrRo-20" edge="1">
          <mxGeometry relative="1" as="geometry" />
        </mxCell>
        <mxCell id="9CapiTV6LvwFViI8SrRo-69" style="rounded=0;orthogonalLoop=1;jettySize=auto;html=1;entryX=0;entryY=0.5;entryDx=0;entryDy=0;" parent="1" source="9CapiTV6LvwFViI8SrRo-10" target="9CapiTV6LvwFViI8SrRo-25" edge="1">
          <mxGeometry relative="1" as="geometry" />
        </mxCell>
        <mxCell id="9CapiTV6LvwFViI8SrRo-10" value="&lt;div&gt;TuitionOfficer&lt;/div&gt;&lt;div&gt;&lt;br&gt;&lt;/div&gt;" style="shape=umlActor;verticalLabelPosition=bottom;verticalAlign=top;html=1;" parent="1" vertex="1">
          <mxGeometry x="769" y="-290" width="30" height="60" as="geometry" />
        </mxCell>
        <mxCell id="9CapiTV6LvwFViI8SrRo-13" value="Admin" style="shape=umlActor;verticalLabelPosition=bottom;verticalAlign=top;html=1;" parent="1" vertex="1">
          <mxGeometry x="430" y="-100" width="30" height="60" as="geometry" />
        </mxCell>
        <mxCell id="9CapiTV6LvwFViI8SrRo-14" value="Director" style="shape=umlActor;verticalLabelPosition=bottom;verticalAlign=top;html=1;" parent="1" vertex="1">
          <mxGeometry x="430" y="-220" width="30" height="60" as="geometry" />
        </mxCell>
        <mxCell id="9CapiTV6LvwFViI8SrRo-16" value="signin" style="ellipse;whiteSpace=wrap;html=1;" parent="1" vertex="1">
          <mxGeometry x="760" y="-470" width="80" height="50" as="geometry" />
        </mxCell>
        <mxCell id="9CapiTV6LvwFViI8SrRo-17" style="rounded=0;orthogonalLoop=1;jettySize=auto;html=1;entryX=0.006;entryY=0.726;entryDx=0;entryDy=0;entryPerimeter=0;" parent="1" source="9CapiTV6LvwFViI8SrRo-1" target="9CapiTV6LvwFViI8SrRo-16" edge="1">
          <mxGeometry relative="1" as="geometry" />
        </mxCell>
        <mxCell id="9CapiTV6LvwFViI8SrRo-18" value="signup" style="ellipse;whiteSpace=wrap;html=1;" parent="1" vertex="1">
          <mxGeometry x="860" y="-520" width="80" height="50" as="geometry" />
        </mxCell>
        <mxCell id="9CapiTV6LvwFViI8SrRo-20" value="Crud d&#39;eleve" style="ellipse;whiteSpace=wrap;html=1;" parent="1" vertex="1">
          <mxGeometry x="880" y="-340" width="100" height="50" as="geometry" />
        </mxCell>
        <mxCell id="9CapiTV6LvwFViI8SrRo-21" value="Crud cours" style="ellipse;whiteSpace=wrap;html=1;" parent="1" vertex="1">
          <mxGeometry x="880" y="-270" width="100" height="50" as="geometry" />
        </mxCell>
        <mxCell id="9CapiTV6LvwFViI8SrRo-22" value="Crud modules" style="ellipse;whiteSpace=wrap;html=1;" parent="1" vertex="1">
          <mxGeometry x="880" y="-210" width="100" height="50" as="geometry" />
        </mxCell>
        <mxCell id="9CapiTV6LvwFViI8SrRo-23" value="Crud programme" style="ellipse;whiteSpace=wrap;html=1;" parent="1" vertex="1">
          <mxGeometry x="880" y="-145" width="100" height="50" as="geometry" />
        </mxCell>
        <mxCell id="9CapiTV6LvwFViI8SrRo-24" value="Crud classe" style="ellipse;whiteSpace=wrap;html=1;" parent="1" vertex="1">
          <mxGeometry x="880" y="130" width="100" height="50" as="geometry" />
        </mxCell>
        <mxCell id="9CapiTV6LvwFViI8SrRo-25" value="Crud reglement" style="ellipse;whiteSpace=wrap;html=1;" parent="1" vertex="1">
          <mxGeometry x="880" width="100" height="50" as="geometry" />
        </mxCell>
        <mxCell id="9CapiTV6LvwFViI8SrRo-26" value="Crud paye" style="ellipse;whiteSpace=wrap;html=1;" parent="1" vertex="1">
          <mxGeometry x="880" y="70" width="100" height="50" as="geometry" />
        </mxCell>
        <mxCell id="9CapiTV6LvwFViI8SrRo-27" value="parcours d&#39;un eleve" style="ellipse;whiteSpace=wrap;html=1;" parent="1" vertex="1">
          <mxGeometry x="940" y="-450" width="100" height="50" as="geometry" />
        </mxCell>
        <mxCell id="9CapiTV6LvwFViI8SrRo-28" style="rounded=0;orthogonalLoop=1;jettySize=auto;html=1;entryX=0.076;entryY=0.788;entryDx=0;entryDy=0;entryPerimeter=0;" parent="1" source="9CapiTV6LvwFViI8SrRo-20" target="9CapiTV6LvwFViI8SrRo-27" edge="1">
          <mxGeometry relative="1" as="geometry" />
        </mxCell>
        <mxCell id="9CapiTV6LvwFViI8SrRo-29" value="Generer le bulletin d&#39;un eleve" style="ellipse;whiteSpace=wrap;html=1;" parent="1" vertex="1">
          <mxGeometry x="1150" y="-420" width="100" height="50" as="geometry" />
        </mxCell>
        <mxCell id="9CapiTV6LvwFViI8SrRo-30" value="Crud professeur" style="ellipse;whiteSpace=wrap;html=1;" parent="1" vertex="1">
          <mxGeometry x="880" y="-70" width="100" height="50" as="geometry" />
        </mxCell>
        <mxCell id="9CapiTV6LvwFViI8SrRo-31" value="Generer le bulletin d&#39;une classe" style="ellipse;whiteSpace=wrap;html=1;" parent="1" vertex="1">
          <mxGeometry x="1160" y="120" width="100" height="50" as="geometry" />
        </mxCell>
        <mxCell id="9CapiTV6LvwFViI8SrRo-32" value="Crud Rapport de presences" style="ellipse;whiteSpace=wrap;html=1;" parent="1" vertex="1">
          <mxGeometry x="1050" y="120" width="100" height="50" as="geometry" />
        </mxCell>
        <mxCell id="9CapiTV6LvwFViI8SrRo-33" value="Attestation d&#39;inscription" style="ellipse;whiteSpace=wrap;html=1;" parent="1" vertex="1">
          <mxGeometry x="1010" y="-340" width="100" height="50" as="geometry" />
        </mxCell>
        <mxCell id="9CapiTV6LvwFViI8SrRo-34" value="Generer Badge" style="ellipse;whiteSpace=wrap;html=1;" parent="1" vertex="1">
          <mxGeometry x="1150" y="-340" width="100" height="50" as="geometry" />
        </mxCell>
        <mxCell id="9CapiTV6LvwFViI8SrRo-35" value="Generer recu de reglement&amp;nbsp;" style="ellipse;whiteSpace=wrap;html=1;" parent="1" vertex="1">
          <mxGeometry x="1060" y="10" width="100" height="50" as="geometry" />
        </mxCell>
        <mxCell id="9CapiTV6LvwFViI8SrRo-36" value="Graphes de performances" style="ellipse;whiteSpace=wrap;html=1;" parent="1" vertex="1">
          <mxGeometry x="1290" y="-340" width="100" height="50" as="geometry" />
        </mxCell>
        <mxCell id="9CapiTV6LvwFViI8SrRo-37" value="Graphes de performances" style="ellipse;whiteSpace=wrap;html=1;" parent="1" vertex="1">
          <mxGeometry x="1260" y="120" width="100" height="50" as="geometry" />
        </mxCell>
        <mxCell id="9CapiTV6LvwFViI8SrRo-38" value="Notifications&amp;nbsp;" style="ellipse;whiteSpace=wrap;html=1;" parent="1" vertex="1">
          <mxGeometry x="1010" y="-610" width="100" height="50" as="geometry" />
        </mxCell>
        <mxCell id="9CapiTV6LvwFViI8SrRo-39" value="Attribution de cours" style="ellipse;whiteSpace=wrap;html=1;" parent="1" vertex="1">
          <mxGeometry x="1030" y="-230" width="100" height="50" as="geometry" />
        </mxCell>
        <mxCell id="9CapiTV6LvwFViI8SrRo-40" value="Definir les prerequis d&#39;un cours" style="ellipse;whiteSpace=wrap;html=1;" parent="1" vertex="1">
          <mxGeometry x="1150" y="-270" width="100" height="50" as="geometry" />
        </mxCell>
        <mxCell id="9CapiTV6LvwFViI8SrRo-41" value="Fil de Discussion" style="ellipse;whiteSpace=wrap;html=1;" parent="1" vertex="1">
          <mxGeometry x="870" y="220" width="100" height="50" as="geometry" />
        </mxCell>
        <mxCell id="9CapiTV6LvwFViI8SrRo-42" value="Participer a un fils de discution" style="ellipse;whiteSpace=wrap;html=1;" parent="1" vertex="1">
          <mxGeometry x="830" y="-640" width="100" height="50" as="geometry" />
        </mxCell>
        <mxCell id="9CapiTV6LvwFViI8SrRo-43" style="rounded=0;orthogonalLoop=1;jettySize=auto;html=1;entryX=0.02;entryY=0.656;entryDx=0;entryDy=0;entryPerimeter=0;" parent="1" source="9CapiTV6LvwFViI8SrRo-1" target="9CapiTV6LvwFViI8SrRo-42" edge="1">
          <mxGeometry relative="1" as="geometry" />
        </mxCell>
        <mxCell id="9CapiTV6LvwFViI8SrRo-45" value="Extends" style="endArrow=block;endSize=16;endFill=0;html=1;rounded=0;exitX=1;exitY=1;exitDx=0;exitDy=0;exitPerimeter=0;entryX=0.25;entryY=0.1;entryDx=0;entryDy=0;entryPerimeter=0;" parent="1" source="9CapiTV6LvwFViI8SrRo-4" target="9CapiTV6LvwFViI8SrRo-1" edge="1">
          <mxGeometry width="160" relative="1" as="geometry">
            <mxPoint x="830" y="-500" as="sourcePoint" />
            <mxPoint x="990" y="-500" as="targetPoint" />
          </mxGeometry>
        </mxCell>
        <mxCell id="9CapiTV6LvwFViI8SrRo-46" value="Extends" style="endArrow=block;endSize=16;endFill=0;html=1;rounded=0;exitX=1;exitY=1;exitDx=0;exitDy=0;exitPerimeter=0;entryX=0;entryY=0.3333333333333333;entryDx=0;entryDy=0;entryPerimeter=0;" parent="1" source="9CapiTV6LvwFViI8SrRo-7" target="9CapiTV6LvwFViI8SrRo-1" edge="1">
          <mxGeometry width="160" relative="1" as="geometry">
            <mxPoint x="610" y="-680" as="sourcePoint" />
            <mxPoint x="630" y="-520" as="targetPoint" />
          </mxGeometry>
        </mxCell>
        <mxCell id="9CapiTV6LvwFViI8SrRo-49" value="Teacher" style="shape=umlActor;verticalLabelPosition=bottom;verticalAlign=top;html=1;" parent="1" vertex="1">
          <mxGeometry x="430" y="-480" width="30" height="60" as="geometry" />
        </mxCell>
        <mxCell id="9CapiTV6LvwFViI8SrRo-50" value="Extends" style="endArrow=block;endSize=16;endFill=0;html=1;rounded=0;exitX=0.75;exitY=0.1;exitDx=0;exitDy=0;exitPerimeter=0;entryX=0;entryY=1;entryDx=0;entryDy=0;entryPerimeter=0;" parent="1" source="9CapiTV6LvwFViI8SrRo-3" target="9CapiTV6LvwFViI8SrRo-1" edge="1">
          <mxGeometry width="160" relative="1" as="geometry">
            <mxPoint x="830" y="-500" as="sourcePoint" />
            <mxPoint x="990" y="-500" as="targetPoint" />
          </mxGeometry>
        </mxCell>
        <mxCell id="9CapiTV6LvwFViI8SrRo-52" value="Extends" style="endArrow=block;endSize=16;endFill=0;html=1;rounded=0;exitX=1;exitY=0.3333333333333333;exitDx=0;exitDy=0;exitPerimeter=0;entryX=0;entryY=1;entryDx=0;entryDy=0;entryPerimeter=0;" parent="1" source="9CapiTV6LvwFViI8SrRo-6" target="9CapiTV6LvwFViI8SrRo-3" edge="1">
          <mxGeometry width="160" relative="1" as="geometry">
            <mxPoint x="830" y="-270" as="sourcePoint" />
            <mxPoint x="990" y="-270" as="targetPoint" />
          </mxGeometry>
        </mxCell>
        <mxCell id="9CapiTV6LvwFViI8SrRo-53" value="Extends" style="endArrow=block;endSize=16;endFill=0;html=1;rounded=0;exitX=0.5;exitY=0;exitDx=0;exitDy=0;exitPerimeter=0;" parent="1" source="9CapiTV6LvwFViI8SrRo-10" target="9CapiTV6LvwFViI8SrRo-3" edge="1">
          <mxGeometry width="160" relative="1" as="geometry">
            <mxPoint x="770" y="-347" as="sourcePoint" />
            <mxPoint x="730" y="-190" as="targetPoint" />
          </mxGeometry>
        </mxCell>
        <mxCell id="9CapiTV6LvwFViI8SrRo-54" value="Extends" style="endArrow=block;endSize=16;endFill=0;html=1;rounded=0;entryX=0;entryY=0.3333333333333333;entryDx=0;entryDy=0;entryPerimeter=0;exitX=1;exitY=1;exitDx=0;exitDy=0;exitPerimeter=0;" parent="1" source="9CapiTV6LvwFViI8SrRo-49" target="9CapiTV6LvwFViI8SrRo-3" edge="1">
          <mxGeometry width="160" relative="1" as="geometry">
            <mxPoint x="540" y="-270" as="sourcePoint" />
            <mxPoint x="770" y="-260" as="targetPoint" />
          </mxGeometry>
        </mxCell>
        <mxCell id="9CapiTV6LvwFViI8SrRo-56" value="Extends" style="endArrow=block;endSize=16;endFill=0;html=1;rounded=0;exitX=0.75;exitY=0.1;exitDx=0;exitDy=0;exitPerimeter=0;" parent="1" source="9CapiTV6LvwFViI8SrRo-14" target="9CapiTV6LvwFViI8SrRo-3" edge="1">
          <mxGeometry width="160" relative="1" as="geometry">
            <mxPoint x="600" y="-330" as="sourcePoint" />
            <mxPoint x="650" y="-220" as="targetPoint" />
          </mxGeometry>
        </mxCell>
        <mxCell id="9CapiTV6LvwFViI8SrRo-57" value="Extends" style="endArrow=block;endSize=16;endFill=0;html=1;rounded=0;exitX=1.013;exitY=0.2;exitDx=0;exitDy=0;exitPerimeter=0;" parent="1" source="9CapiTV6LvwFViI8SrRo-8" target="9CapiTV6LvwFViI8SrRo-3" edge="1">
          <mxGeometry width="160" relative="1" as="geometry">
            <mxPoint x="610" y="-320" as="sourcePoint" />
            <mxPoint x="790" y="-240" as="targetPoint" />
          </mxGeometry>
        </mxCell>
        <mxCell id="9CapiTV6LvwFViI8SrRo-60" value="Extends" style="endArrow=block;endSize=16;endFill=0;html=1;rounded=0;exitX=1;exitY=0.3333333333333333;exitDx=0;exitDy=0;exitPerimeter=0;" parent="1" source="9CapiTV6LvwFViI8SrRo-13" target="9CapiTV6LvwFViI8SrRo-3" edge="1">
          <mxGeometry width="160" relative="1" as="geometry">
            <mxPoint x="620" y="-310" as="sourcePoint" />
            <mxPoint x="800" y="-230" as="targetPoint" />
          </mxGeometry>
        </mxCell>
        <mxCell id="9CapiTV6LvwFViI8SrRo-63" value="Crud Evaluation" style="ellipse;whiteSpace=wrap;html=1;" parent="1" vertex="1">
          <mxGeometry x="880" y="300" width="100" height="50" as="geometry" />
        </mxCell>
        <mxCell id="9CapiTV6LvwFViI8SrRo-66" style="rounded=0;orthogonalLoop=1;jettySize=auto;html=1;entryX=0;entryY=0.5;entryDx=0;entryDy=0;" parent="1" source="9CapiTV6LvwFViI8SrRo-6" target="9CapiTV6LvwFViI8SrRo-22" edge="1">
          <mxGeometry relative="1" as="geometry" />
        </mxCell>
        <mxCell id="9CapiTV6LvwFViI8SrRo-67" style="rounded=0;orthogonalLoop=1;jettySize=auto;html=1;entryX=0.024;entryY=0.752;entryDx=0;entryDy=0;entryPerimeter=0;" parent="1" source="9CapiTV6LvwFViI8SrRo-6" target="9CapiTV6LvwFViI8SrRo-23" edge="1">
          <mxGeometry relative="1" as="geometry" />
        </mxCell>
        <mxCell id="9CapiTV6LvwFViI8SrRo-70" value="return" style="html=1;verticalAlign=bottom;endArrow=open;dashed=1;endSize=8;curved=0;rounded=0;exitX=-0.004;exitY=0.212;exitDx=0;exitDy=0;exitPerimeter=0;" parent="1" source="9CapiTV6LvwFViI8SrRo-39" target="9CapiTV6LvwFViI8SrRo-21" edge="1">
          <mxGeometry relative="1" as="geometry">
            <mxPoint x="950" y="-320" as="sourcePoint" />
            <mxPoint x="870" y="-320" as="targetPoint" />
          </mxGeometry>
        </mxCell>
      </root>
    </mxGraphModel>
  </diagram>
  <diagram id="H4PzheLuy81Qct3X1TLB" name="class diagram">
    <mxGraphModel dx="3557" dy="809" grid="1" gridSize="10" guides="1" tooltips="1" connect="1" arrows="1" fold="1" page="1" pageScale="1" pageWidth="827" pageHeight="1169" math="0" shadow="0">
      <root>
        <mxCell id="0" />
        <mxCell id="1" parent="0" />
        <mxCell id="TrfQJ1hGQUsd06bJWgcP-186" style="edgeStyle=orthogonalEdgeStyle;rounded=0;orthogonalLoop=1;jettySize=auto;html=1;" edge="1" parent="1" source="TrfQJ1hGQUsd06bJWgcP-1" target="TrfQJ1hGQUsd06bJWgcP-58">
          <mxGeometry relative="1" as="geometry" />
        </mxCell>
        <mxCell id="TrfQJ1hGQUsd06bJWgcP-1" value="InscriptionService" style="swimlane;fontStyle=0;align=center;verticalAlign=top;childLayout=stackLayout;horizontal=1;startSize=55;horizontalStack=0;resizeParent=1;resizeParentMax=0;resizeLast=0;collapsible=0;marginBottom=0;html=1;whiteSpace=wrap;" vertex="1" parent="1">
          <mxGeometry x="-600" y="540" width="210" height="570" as="geometry" />
        </mxCell>
        <mxCell id="TrfQJ1hGQUsd06bJWgcP-2" value="attributes" style="text;html=1;strokeColor=none;fillColor=none;align=center;verticalAlign=middle;spacingLeft=4;spacingRight=4;overflow=hidden;rotatable=0;points=[[0,0.5],[1,0.5]];portConstraint=eastwest;whiteSpace=wrap;" vertex="1" parent="TrfQJ1hGQUsd06bJWgcP-1">
          <mxGeometry y="55" width="210" height="20" as="geometry" />
        </mxCell>
        <mxCell id="TrfQJ1hGQUsd06bJWgcP-3" value="id: String" style="text;html=1;strokeColor=none;fillColor=none;align=left;verticalAlign=middle;spacingLeft=4;spacingRight=4;overflow=hidden;rotatable=0;points=[[0,0.5],[1,0.5]];portConstraint=eastwest;whiteSpace=wrap;" vertex="1" parent="TrfQJ1hGQUsd06bJWgcP-1">
          <mxGeometry y="75" width="210" height="20" as="geometry" />
        </mxCell>
        <mxCell id="TrfQJ1hGQUsd06bJWgcP-4" value="-nom: String" style="text;html=1;strokeColor=none;fillColor=none;align=left;verticalAlign=middle;spacingLeft=4;spacingRight=4;overflow=hidden;rotatable=0;points=[[0,0.5],[1,0.5]];portConstraint=eastwest;fontColor=#808080;whiteSpace=wrap;" vertex="1" parent="TrfQJ1hGQUsd06bJWgcP-1">
          <mxGeometry y="95" width="210" height="20" as="geometry" />
        </mxCell>
        <mxCell id="TrfQJ1hGQUsd06bJWgcP-5" value="-prenom:String" style="text;html=1;strokeColor=none;fillColor=none;align=left;verticalAlign=middle;spacingLeft=4;spacingRight=4;overflow=hidden;rotatable=0;points=[[0,0.5],[1,0.5]];portConstraint=eastwest;whiteSpace=wrap;" vertex="1" parent="TrfQJ1hGQUsd06bJWgcP-1">
          <mxGeometry y="115" width="210" height="20" as="geometry" />
        </mxCell>
        <mxCell id="TrfQJ1hGQUsd06bJWgcP-19" value="-dateNaissance:String" style="text;html=1;strokeColor=none;fillColor=none;align=left;verticalAlign=middle;spacingLeft=4;spacingRight=4;overflow=hidden;rotatable=0;points=[[0,0.5],[1,0.5]];portConstraint=eastwest;whiteSpace=wrap;" vertex="1" parent="TrfQJ1hGQUsd06bJWgcP-1">
          <mxGeometry y="135" width="210" height="20" as="geometry" />
        </mxCell>
        <mxCell id="TrfQJ1hGQUsd06bJWgcP-20" value="-adresse:String" style="text;html=1;strokeColor=none;fillColor=none;align=left;verticalAlign=middle;spacingLeft=4;spacingRight=4;overflow=hidden;rotatable=0;points=[[0,0.5],[1,0.5]];portConstraint=eastwest;whiteSpace=wrap;" vertex="1" parent="TrfQJ1hGQUsd06bJWgcP-1">
          <mxGeometry y="155" width="210" height="20" as="geometry" />
        </mxCell>
        <mxCell id="TrfQJ1hGQUsd06bJWgcP-21" value="-dateInscription:String" style="text;html=1;strokeColor=none;fillColor=none;align=left;verticalAlign=middle;spacingLeft=4;spacingRight=4;overflow=hidden;rotatable=0;points=[[0,0.5],[1,0.5]];portConstraint=eastwest;whiteSpace=wrap;" vertex="1" parent="TrfQJ1hGQUsd06bJWgcP-1">
          <mxGeometry y="175" width="210" height="20" as="geometry" />
        </mxCell>
        <mxCell id="TrfQJ1hGQUsd06bJWgcP-190" value="- etudiant_id: String" style="text;html=1;strokeColor=none;fillColor=none;align=left;verticalAlign=middle;spacingLeft=4;spacingRight=4;overflow=hidden;rotatable=0;points=[[0,0.5],[1,0.5]];portConstraint=eastwest;whiteSpace=wrap;" vertex="1" parent="TrfQJ1hGQUsd06bJWgcP-1">
          <mxGeometry y="195" width="210" height="20" as="geometry" />
        </mxCell>
        <mxCell id="TrfQJ1hGQUsd06bJWgcP-6" value="" style="line;strokeWidth=1;fillColor=none;align=left;verticalAlign=middle;spacingTop=-1;spacingLeft=3;spacingRight=3;rotatable=0;labelPosition=right;points=[];portConstraint=eastwest;" vertex="1" parent="TrfQJ1hGQUsd06bJWgcP-1">
          <mxGeometry y="215" width="210" height="215" as="geometry" />
        </mxCell>
        <mxCell id="TrfQJ1hGQUsd06bJWgcP-8" value="+&amp;nbsp; enregistrerInscription()&lt;div&gt;&lt;code style=&quot;background-color: initial;&quot;&gt;+ miseAJourInscription()&lt;/code&gt;&lt;/div&gt;&lt;div&gt;&lt;span style=&quot;background-color: initial;&quot;&gt;&amp;nbsp;+&amp;nbsp;&lt;/span&gt;&lt;code style=&quot;background-color: initial;&quot;&gt;supprimerInscription()&lt;/code&gt;&lt;/div&gt;" style="text;html=1;strokeColor=none;fillColor=none;align=left;verticalAlign=middle;spacingLeft=4;spacingRight=4;overflow=hidden;rotatable=0;points=[[0,0.5],[1,0.5]];portConstraint=eastwest;whiteSpace=wrap;" vertex="1" parent="TrfQJ1hGQUsd06bJWgcP-1">
          <mxGeometry y="430" width="210" height="120" as="geometry" />
        </mxCell>
        <mxCell id="TrfQJ1hGQUsd06bJWgcP-7" value="operations" style="text;html=1;strokeColor=none;fillColor=none;align=center;verticalAlign=middle;spacingLeft=4;spacingRight=4;overflow=hidden;rotatable=0;points=[[0,0.5],[1,0.5]];portConstraint=eastwest;whiteSpace=wrap;" vertex="1" parent="TrfQJ1hGQUsd06bJWgcP-1">
          <mxGeometry y="550" width="210" height="20" as="geometry" />
        </mxCell>
        <mxCell id="TrfQJ1hGQUsd06bJWgcP-17" style="edgeStyle=orthogonalEdgeStyle;rounded=0;orthogonalLoop=1;jettySize=auto;html=1;entryX=0.4;entryY=0.96;entryDx=0;entryDy=0;entryPerimeter=0;" edge="1" parent="1" source="TrfQJ1hGQUsd06bJWgcP-16">
          <mxGeometry relative="1" as="geometry">
            <mxPoint x="-151.9999999999991" y="108" as="targetPoint" />
          </mxGeometry>
        </mxCell>
        <mxCell id="TrfQJ1hGQUsd06bJWgcP-188" style="edgeStyle=orthogonalEdgeStyle;rounded=0;orthogonalLoop=1;jettySize=auto;html=1;entryX=0.983;entryY=0.069;entryDx=0;entryDy=0;entryPerimeter=0;" edge="1" parent="1" target="TrfQJ1hGQUsd06bJWgcP-51">
          <mxGeometry relative="1" as="geometry">
            <mxPoint x="-230" y="180" as="targetPoint" />
            <mxPoint x="-290" y="490" as="sourcePoint" />
          </mxGeometry>
        </mxCell>
        <mxCell id="TrfQJ1hGQUsd06bJWgcP-34" value="FraisService" style="swimlane;fontStyle=0;align=center;verticalAlign=top;childLayout=stackLayout;horizontal=1;startSize=55;horizontalStack=0;resizeParent=1;resizeParentMax=0;resizeLast=0;collapsible=0;marginBottom=0;html=1;whiteSpace=wrap;" vertex="1" parent="1">
          <mxGeometry x="-290" y="310" width="210" height="550" as="geometry" />
        </mxCell>
        <mxCell id="TrfQJ1hGQUsd06bJWgcP-35" value="attributes" style="text;html=1;strokeColor=none;fillColor=none;align=center;verticalAlign=middle;spacingLeft=4;spacingRight=4;overflow=hidden;rotatable=0;points=[[0,0.5],[1,0.5]];portConstraint=eastwest;whiteSpace=wrap;" vertex="1" parent="TrfQJ1hGQUsd06bJWgcP-34">
          <mxGeometry y="55" width="210" height="20" as="geometry" />
        </mxCell>
        <mxCell id="TrfQJ1hGQUsd06bJWgcP-36" value="-idPaiement: String" style="text;html=1;strokeColor=none;fillColor=none;align=left;verticalAlign=middle;spacingLeft=4;spacingRight=4;overflow=hidden;rotatable=0;points=[[0,0.5],[1,0.5]];portConstraint=eastwest;whiteSpace=wrap;" vertex="1" parent="TrfQJ1hGQUsd06bJWgcP-34">
          <mxGeometry y="75" width="210" height="20" as="geometry" />
        </mxCell>
        <mxCell id="TrfQJ1hGQUsd06bJWgcP-37" value="- &lt;code&gt;montant&lt;/code&gt;: String" style="text;html=1;strokeColor=none;fillColor=none;align=left;verticalAlign=middle;spacingLeft=4;spacingRight=4;overflow=hidden;rotatable=0;points=[[0,0.5],[1,0.5]];portConstraint=eastwest;fontColor=#808080;whiteSpace=wrap;" vertex="1" parent="TrfQJ1hGQUsd06bJWgcP-34">
          <mxGeometry y="95" width="210" height="20" as="geometry" />
        </mxCell>
        <mxCell id="TrfQJ1hGQUsd06bJWgcP-38" value="-datePaiement:String" style="text;html=1;strokeColor=none;fillColor=none;align=left;verticalAlign=middle;spacingLeft=4;spacingRight=4;overflow=hidden;rotatable=0;points=[[0,0.5],[1,0.5]];portConstraint=eastwest;whiteSpace=wrap;" vertex="1" parent="TrfQJ1hGQUsd06bJWgcP-34">
          <mxGeometry y="115" width="210" height="20" as="geometry" />
        </mxCell>
        <mxCell id="TrfQJ1hGQUsd06bJWgcP-39" value="-statutpayement:enum" style="text;html=1;strokeColor=none;fillColor=none;align=left;verticalAlign=middle;spacingLeft=4;spacingRight=4;overflow=hidden;rotatable=0;points=[[0,0.5],[1,0.5]];portConstraint=eastwest;whiteSpace=wrap;" vertex="1" parent="TrfQJ1hGQUsd06bJWgcP-34">
          <mxGeometry y="135" width="210" height="20" as="geometry" />
        </mxCell>
        <mxCell id="TrfQJ1hGQUsd06bJWgcP-40" value="-modepayement:enum" style="text;html=1;strokeColor=none;fillColor=none;align=left;verticalAlign=middle;spacingLeft=4;spacingRight=4;overflow=hidden;rotatable=0;points=[[0,0.5],[1,0.5]];portConstraint=eastwest;whiteSpace=wrap;" vertex="1" parent="TrfQJ1hGQUsd06bJWgcP-34">
          <mxGeometry y="155" width="210" height="20" as="geometry" />
        </mxCell>
        <mxCell id="TrfQJ1hGQUsd06bJWgcP-191" value="- etudiant_id: String" style="text;html=1;strokeColor=none;fillColor=none;align=left;verticalAlign=middle;spacingLeft=4;spacingRight=4;overflow=hidden;rotatable=0;points=[[0,0.5],[1,0.5]];portConstraint=eastwest;whiteSpace=wrap;" vertex="1" parent="TrfQJ1hGQUsd06bJWgcP-34">
          <mxGeometry y="175" width="210" height="20" as="geometry" />
        </mxCell>
        <mxCell id="TrfQJ1hGQUsd06bJWgcP-42" value="" style="line;strokeWidth=1;fillColor=none;align=left;verticalAlign=middle;spacingTop=-1;spacingLeft=3;spacingRight=3;rotatable=0;labelPosition=right;points=[];portConstraint=eastwest;" vertex="1" parent="TrfQJ1hGQUsd06bJWgcP-34">
          <mxGeometry y="195" width="210" height="215" as="geometry" />
        </mxCell>
        <mxCell id="TrfQJ1hGQUsd06bJWgcP-43" value="+effectuerPaiement()&lt;div&gt;&lt;span style=&quot;background-color: initial;&quot;&gt;+historiquePaiements()&lt;/span&gt;&lt;div&gt;&lt;span style=&quot;background-color: initial;&quot;&gt;+&lt;/span&gt;&lt;span style=&quot;background-color: initial;&quot;&gt;rechercherPaiement()&lt;/span&gt;&lt;br&gt;&lt;/div&gt;&lt;/div&gt;" style="text;html=1;strokeColor=none;fillColor=none;align=left;verticalAlign=middle;spacingLeft=4;spacingRight=4;overflow=hidden;rotatable=0;points=[[0,0.5],[1,0.5]];portConstraint=eastwest;whiteSpace=wrap;" vertex="1" parent="TrfQJ1hGQUsd06bJWgcP-34">
          <mxGeometry y="410" width="210" height="120" as="geometry" />
        </mxCell>
        <mxCell id="TrfQJ1hGQUsd06bJWgcP-44" value="operations" style="text;html=1;strokeColor=none;fillColor=none;align=center;verticalAlign=middle;spacingLeft=4;spacingRight=4;overflow=hidden;rotatable=0;points=[[0,0.5],[1,0.5]];portConstraint=eastwest;whiteSpace=wrap;" vertex="1" parent="TrfQJ1hGQUsd06bJWgcP-34">
          <mxGeometry y="530" width="210" height="20" as="geometry" />
        </mxCell>
        <mxCell id="TrfQJ1hGQUsd06bJWgcP-45" value="&amp;lt;&amp;lt;enumeration&amp;gt;&amp;gt;&lt;br&gt;&lt;b&gt;StatutPayement&lt;/b&gt;" style="swimlane;fontStyle=0;align=center;verticalAlign=top;childLayout=stackLayout;horizontal=1;startSize=40;horizontalStack=0;resizeParent=1;resizeParentMax=0;resizeLast=0;collapsible=0;marginBottom=0;html=1;whiteSpace=wrap;" vertex="1" parent="1">
          <mxGeometry x="-10" y="410" width="140" height="70" as="geometry" />
        </mxCell>
        <mxCell id="TrfQJ1hGQUsd06bJWgcP-46" value="complet, encour," style="text;html=1;strokeColor=none;fillColor=none;align=left;verticalAlign=middle;spacingLeft=4;spacingRight=4;overflow=hidden;rotatable=0;points=[[0,0.5],[1,0.5]];portConstraint=eastwest;whiteSpace=wrap;" vertex="1" parent="TrfQJ1hGQUsd06bJWgcP-45">
          <mxGeometry y="40" width="140" height="30" as="geometry" />
        </mxCell>
        <mxCell id="TrfQJ1hGQUsd06bJWgcP-47" style="edgeStyle=orthogonalEdgeStyle;rounded=0;orthogonalLoop=1;jettySize=auto;html=1;" edge="1" parent="1" source="TrfQJ1hGQUsd06bJWgcP-46" target="TrfQJ1hGQUsd06bJWgcP-39">
          <mxGeometry relative="1" as="geometry" />
        </mxCell>
        <mxCell id="TrfQJ1hGQUsd06bJWgcP-48" value="&amp;lt;&amp;lt;enumeration&amp;gt;&amp;gt;&lt;br&gt;&lt;b&gt;ModePayement&lt;/b&gt;" style="swimlane;fontStyle=0;align=center;verticalAlign=top;childLayout=stackLayout;horizontal=1;startSize=40;horizontalStack=0;resizeParent=1;resizeParentMax=0;resizeLast=0;collapsible=0;marginBottom=0;html=1;whiteSpace=wrap;" vertex="1" parent="1">
          <mxGeometry x="30" y="520" width="140" height="70" as="geometry" />
        </mxCell>
        <mxCell id="TrfQJ1hGQUsd06bJWgcP-49" value="Carte,Cash,Depot" style="text;html=1;strokeColor=none;fillColor=none;align=left;verticalAlign=middle;spacingLeft=4;spacingRight=4;overflow=hidden;rotatable=0;points=[[0,0.5],[1,0.5]];portConstraint=eastwest;whiteSpace=wrap;" vertex="1" parent="TrfQJ1hGQUsd06bJWgcP-48">
          <mxGeometry y="40" width="140" height="30" as="geometry" />
        </mxCell>
        <mxCell id="TrfQJ1hGQUsd06bJWgcP-50" style="edgeStyle=orthogonalEdgeStyle;rounded=0;orthogonalLoop=1;jettySize=auto;html=1;entryX=1;entryY=0.5;entryDx=0;entryDy=0;" edge="1" parent="1" source="TrfQJ1hGQUsd06bJWgcP-49" target="TrfQJ1hGQUsd06bJWgcP-40">
          <mxGeometry relative="1" as="geometry" />
        </mxCell>
        <mxCell id="TrfQJ1hGQUsd06bJWgcP-51" value="Étudiant" style="swimlane;fontStyle=0;align=center;verticalAlign=top;childLayout=stackLayout;horizontal=1;startSize=55;horizontalStack=0;resizeParent=1;resizeParentMax=0;resizeLast=0;collapsible=0;marginBottom=0;html=1;whiteSpace=wrap;" vertex="1" parent="1">
          <mxGeometry x="-1038" y="320" width="210" height="530" as="geometry" />
        </mxCell>
        <mxCell id="TrfQJ1hGQUsd06bJWgcP-52" value="attributes" style="text;html=1;strokeColor=none;fillColor=none;align=center;verticalAlign=middle;spacingLeft=4;spacingRight=4;overflow=hidden;rotatable=0;points=[[0,0.5],[1,0.5]];portConstraint=eastwest;whiteSpace=wrap;" vertex="1" parent="TrfQJ1hGQUsd06bJWgcP-51">
          <mxGeometry y="55" width="210" height="20" as="geometry" />
        </mxCell>
        <mxCell id="TrfQJ1hGQUsd06bJWgcP-53" value="-idEtudiant: String" style="text;html=1;strokeColor=none;fillColor=none;align=left;verticalAlign=middle;spacingLeft=4;spacingRight=4;overflow=hidden;rotatable=0;points=[[0,0.5],[1,0.5]];portConstraint=eastwest;whiteSpace=wrap;" vertex="1" parent="TrfQJ1hGQUsd06bJWgcP-51">
          <mxGeometry y="75" width="210" height="20" as="geometry" />
        </mxCell>
        <mxCell id="TrfQJ1hGQUsd06bJWgcP-54" value="- nom: String" style="text;html=1;strokeColor=none;fillColor=none;align=left;verticalAlign=middle;spacingLeft=4;spacingRight=4;overflow=hidden;rotatable=0;points=[[0,0.5],[1,0.5]];portConstraint=eastwest;fontColor=#808080;whiteSpace=wrap;" vertex="1" parent="TrfQJ1hGQUsd06bJWgcP-51">
          <mxGeometry y="95" width="210" height="20" as="geometry" />
        </mxCell>
        <mxCell id="TrfQJ1hGQUsd06bJWgcP-55" value="-prenom:String" style="text;html=1;strokeColor=none;fillColor=none;align=left;verticalAlign=middle;spacingLeft=4;spacingRight=4;overflow=hidden;rotatable=0;points=[[0,0.5],[1,0.5]];portConstraint=eastwest;whiteSpace=wrap;" vertex="1" parent="TrfQJ1hGQUsd06bJWgcP-51">
          <mxGeometry y="115" width="210" height="20" as="geometry" />
        </mxCell>
        <mxCell id="TrfQJ1hGQUsd06bJWgcP-56" value="-dateNaissance:string" style="text;html=1;strokeColor=none;fillColor=none;align=left;verticalAlign=middle;spacingLeft=4;spacingRight=4;overflow=hidden;rotatable=0;points=[[0,0.5],[1,0.5]];portConstraint=eastwest;whiteSpace=wrap;" vertex="1" parent="TrfQJ1hGQUsd06bJWgcP-51">
          <mxGeometry y="135" width="210" height="20" as="geometry" />
        </mxCell>
        <mxCell id="TrfQJ1hGQUsd06bJWgcP-57" value="-adresse:string" style="text;html=1;strokeColor=none;fillColor=none;align=left;verticalAlign=middle;spacingLeft=4;spacingRight=4;overflow=hidden;rotatable=0;points=[[0,0.5],[1,0.5]];portConstraint=eastwest;whiteSpace=wrap;" vertex="1" parent="TrfQJ1hGQUsd06bJWgcP-51">
          <mxGeometry y="155" width="210" height="20" as="geometry" />
        </mxCell>
        <mxCell id="TrfQJ1hGQUsd06bJWgcP-58" value="" style="line;strokeWidth=1;fillColor=none;align=left;verticalAlign=middle;spacingTop=-1;spacingLeft=3;spacingRight=3;rotatable=0;labelPosition=right;points=[];portConstraint=eastwest;" vertex="1" parent="TrfQJ1hGQUsd06bJWgcP-51">
          <mxGeometry y="175" width="210" height="215" as="geometry" />
        </mxCell>
        <mxCell id="TrfQJ1hGQUsd06bJWgcP-59" value="&lt;div&gt;&lt;div&gt;+obtenirInformations()&lt;/div&gt;&lt;/div&gt;&lt;div&gt;+miseAJourProfil()&lt;/div&gt;" style="text;html=1;strokeColor=none;fillColor=none;align=left;verticalAlign=middle;spacingLeft=4;spacingRight=4;overflow=hidden;rotatable=0;points=[[0,0.5],[1,0.5]];portConstraint=eastwest;whiteSpace=wrap;" vertex="1" parent="TrfQJ1hGQUsd06bJWgcP-51">
          <mxGeometry y="390" width="210" height="120" as="geometry" />
        </mxCell>
        <mxCell id="TrfQJ1hGQUsd06bJWgcP-60" value="operations" style="text;html=1;strokeColor=none;fillColor=none;align=center;verticalAlign=middle;spacingLeft=4;spacingRight=4;overflow=hidden;rotatable=0;points=[[0,0.5],[1,0.5]];portConstraint=eastwest;whiteSpace=wrap;" vertex="1" parent="TrfQJ1hGQUsd06bJWgcP-51">
          <mxGeometry y="510" width="210" height="20" as="geometry" />
        </mxCell>
        <mxCell id="TrfQJ1hGQUsd06bJWgcP-61" value="ProgrammeService" style="swimlane;fontStyle=0;align=center;verticalAlign=top;childLayout=stackLayout;horizontal=1;startSize=55;horizontalStack=0;resizeParent=1;resizeParentMax=0;resizeLast=0;collapsible=0;marginBottom=0;html=1;whiteSpace=wrap;" vertex="1" parent="1">
          <mxGeometry x="-1380" y="310" width="210" height="510" as="geometry" />
        </mxCell>
        <mxCell id="TrfQJ1hGQUsd06bJWgcP-62" value="attributes" style="text;html=1;strokeColor=none;fillColor=none;align=center;verticalAlign=middle;spacingLeft=4;spacingRight=4;overflow=hidden;rotatable=0;points=[[0,0.5],[1,0.5]];portConstraint=eastwest;whiteSpace=wrap;" vertex="1" parent="TrfQJ1hGQUsd06bJWgcP-61">
          <mxGeometry y="55" width="210" height="20" as="geometry" />
        </mxCell>
        <mxCell id="TrfQJ1hGQUsd06bJWgcP-63" value="-idProgramme: String" style="text;html=1;strokeColor=none;fillColor=none;align=left;verticalAlign=middle;spacingLeft=4;spacingRight=4;overflow=hidden;rotatable=0;points=[[0,0.5],[1,0.5]];portConstraint=eastwest;whiteSpace=wrap;" vertex="1" parent="TrfQJ1hGQUsd06bJWgcP-61">
          <mxGeometry y="75" width="210" height="20" as="geometry" />
        </mxCell>
        <mxCell id="TrfQJ1hGQUsd06bJWgcP-64" value="-nomProgramme: String" style="text;html=1;strokeColor=none;fillColor=none;align=left;verticalAlign=middle;spacingLeft=4;spacingRight=4;overflow=hidden;rotatable=0;points=[[0,0.5],[1,0.5]];portConstraint=eastwest;fontColor=#808080;whiteSpace=wrap;" vertex="1" parent="TrfQJ1hGQUsd06bJWgcP-61">
          <mxGeometry y="95" width="210" height="20" as="geometry" />
        </mxCell>
        <mxCell id="TrfQJ1hGQUsd06bJWgcP-65" value="-description:String" style="text;html=1;strokeColor=none;fillColor=none;align=left;verticalAlign=middle;spacingLeft=4;spacingRight=4;overflow=hidden;rotatable=0;points=[[0,0.5],[1,0.5]];portConstraint=eastwest;whiteSpace=wrap;" vertex="1" parent="TrfQJ1hGQUsd06bJWgcP-61">
          <mxGeometry y="115" width="210" height="20" as="geometry" />
        </mxCell>
        <mxCell id="TrfQJ1hGQUsd06bJWgcP-66" value="-nombreCredits:String" style="text;html=1;strokeColor=none;fillColor=none;align=left;verticalAlign=middle;spacingLeft=4;spacingRight=4;overflow=hidden;rotatable=0;points=[[0,0.5],[1,0.5]];portConstraint=eastwest;whiteSpace=wrap;" vertex="1" parent="TrfQJ1hGQUsd06bJWgcP-61">
          <mxGeometry y="135" width="210" height="20" as="geometry" />
        </mxCell>
        <mxCell id="TrfQJ1hGQUsd06bJWgcP-69" value="" style="line;strokeWidth=1;fillColor=none;align=left;verticalAlign=middle;spacingTop=-1;spacingLeft=3;spacingRight=3;rotatable=0;labelPosition=right;points=[];portConstraint=eastwest;" vertex="1" parent="TrfQJ1hGQUsd06bJWgcP-61">
          <mxGeometry y="155" width="210" height="215" as="geometry" />
        </mxCell>
        <mxCell id="TrfQJ1hGQUsd06bJWgcP-70" value="+&amp;nbsp;creerProgramme()&lt;div&gt;&lt;code style=&quot;background-color: initial;&quot;&gt;+&amp;nbsp;&lt;/code&gt;&lt;span style=&quot;background-color: initial;&quot;&gt;mettreAJourProgramme()&lt;/span&gt;&lt;/div&gt;&lt;div&gt;&lt;span style=&quot;background-color: initial;&quot;&gt;&amp;nbsp;+&amp;nbsp;&lt;/span&gt;&lt;code style=&quot;background-color: initial;&quot;&gt;supprimerProgramme()&lt;/code&gt;&lt;/div&gt;" style="text;html=1;strokeColor=none;fillColor=none;align=left;verticalAlign=middle;spacingLeft=4;spacingRight=4;overflow=hidden;rotatable=0;points=[[0,0.5],[1,0.5]];portConstraint=eastwest;whiteSpace=wrap;" vertex="1" parent="TrfQJ1hGQUsd06bJWgcP-61">
          <mxGeometry y="370" width="210" height="120" as="geometry" />
        </mxCell>
        <mxCell id="TrfQJ1hGQUsd06bJWgcP-71" value="operations" style="text;html=1;strokeColor=none;fillColor=none;align=center;verticalAlign=middle;spacingLeft=4;spacingRight=4;overflow=hidden;rotatable=0;points=[[0,0.5],[1,0.5]];portConstraint=eastwest;whiteSpace=wrap;" vertex="1" parent="TrfQJ1hGQUsd06bJWgcP-61">
          <mxGeometry y="490" width="210" height="20" as="geometry" />
        </mxCell>
        <mxCell id="TrfQJ1hGQUsd06bJWgcP-193" style="edgeStyle=orthogonalEdgeStyle;rounded=0;orthogonalLoop=1;jettySize=auto;html=1;" edge="1" parent="1" source="TrfQJ1hGQUsd06bJWgcP-72">
          <mxGeometry relative="1" as="geometry">
            <mxPoint x="-1310" y="830" as="targetPoint" />
          </mxGeometry>
        </mxCell>
        <mxCell id="TrfQJ1hGQUsd06bJWgcP-72" value="Cours" style="swimlane;fontStyle=0;align=center;verticalAlign=top;childLayout=stackLayout;horizontal=1;startSize=55;horizontalStack=0;resizeParent=1;resizeParentMax=0;resizeLast=0;collapsible=0;marginBottom=0;html=1;whiteSpace=wrap;" vertex="1" parent="1">
          <mxGeometry x="-1370" y="900" width="210" height="530" as="geometry" />
        </mxCell>
        <mxCell id="TrfQJ1hGQUsd06bJWgcP-73" value="attributes" style="text;html=1;strokeColor=none;fillColor=none;align=center;verticalAlign=middle;spacingLeft=4;spacingRight=4;overflow=hidden;rotatable=0;points=[[0,0.5],[1,0.5]];portConstraint=eastwest;whiteSpace=wrap;" vertex="1" parent="TrfQJ1hGQUsd06bJWgcP-72">
          <mxGeometry y="55" width="210" height="20" as="geometry" />
        </mxCell>
        <mxCell id="TrfQJ1hGQUsd06bJWgcP-74" value="-idCours: String" style="text;html=1;strokeColor=none;fillColor=none;align=left;verticalAlign=middle;spacingLeft=4;spacingRight=4;overflow=hidden;rotatable=0;points=[[0,0.5],[1,0.5]];portConstraint=eastwest;whiteSpace=wrap;" vertex="1" parent="TrfQJ1hGQUsd06bJWgcP-72">
          <mxGeometry y="75" width="210" height="20" as="geometry" />
        </mxCell>
        <mxCell id="TrfQJ1hGQUsd06bJWgcP-75" value="-titre: String" style="text;html=1;strokeColor=none;fillColor=none;align=left;verticalAlign=middle;spacingLeft=4;spacingRight=4;overflow=hidden;rotatable=0;points=[[0,0.5],[1,0.5]];portConstraint=eastwest;fontColor=#808080;whiteSpace=wrap;" vertex="1" parent="TrfQJ1hGQUsd06bJWgcP-72">
          <mxGeometry y="95" width="210" height="20" as="geometry" />
        </mxCell>
        <mxCell id="TrfQJ1hGQUsd06bJWgcP-76" value="-description:String" style="text;html=1;strokeColor=none;fillColor=none;align=left;verticalAlign=middle;spacingLeft=4;spacingRight=4;overflow=hidden;rotatable=0;points=[[0,0.5],[1,0.5]];portConstraint=eastwest;whiteSpace=wrap;" vertex="1" parent="TrfQJ1hGQUsd06bJWgcP-72">
          <mxGeometry y="115" width="210" height="20" as="geometry" />
        </mxCell>
        <mxCell id="TrfQJ1hGQUsd06bJWgcP-77" value="-credits:String" style="text;html=1;strokeColor=none;fillColor=none;align=left;verticalAlign=middle;spacingLeft=4;spacingRight=4;overflow=hidden;rotatable=0;points=[[0,0.5],[1,0.5]];portConstraint=eastwest;whiteSpace=wrap;" vertex="1" parent="TrfQJ1hGQUsd06bJWgcP-72">
          <mxGeometry y="135" width="210" height="20" as="geometry" />
        </mxCell>
        <mxCell id="TrfQJ1hGQUsd06bJWgcP-192" value="- programme_id" style="text;html=1;strokeColor=none;fillColor=none;align=left;verticalAlign=middle;spacingLeft=4;spacingRight=4;overflow=hidden;rotatable=0;points=[[0,0.5],[1,0.5]];portConstraint=eastwest;whiteSpace=wrap;" vertex="1" parent="TrfQJ1hGQUsd06bJWgcP-72">
          <mxGeometry y="155" width="210" height="20" as="geometry" />
        </mxCell>
        <mxCell id="TrfQJ1hGQUsd06bJWgcP-78" value="" style="line;strokeWidth=1;fillColor=none;align=left;verticalAlign=middle;spacingTop=-1;spacingLeft=3;spacingRight=3;rotatable=0;labelPosition=right;points=[];portConstraint=eastwest;" vertex="1" parent="TrfQJ1hGQUsd06bJWgcP-72">
          <mxGeometry y="175" width="210" height="215" as="geometry" />
        </mxCell>
        <mxCell id="TrfQJ1hGQUsd06bJWgcP-79" value="+&amp;nbsp;creerCours()&lt;div&gt;&lt;code style=&quot;background-color: initial;&quot;&gt;+&amp;nbsp;supprimerCours()&lt;/code&gt;&lt;/div&gt;&lt;div&gt;&lt;span style=&quot;background-color: initial;&quot;&gt;&amp;nbsp;+&amp;nbsp;&lt;/span&gt;&lt;span style=&quot;background-color: initial;&quot;&gt;miseAJourCours()&lt;/span&gt;&lt;/div&gt;" style="text;html=1;strokeColor=none;fillColor=none;align=left;verticalAlign=middle;spacingLeft=4;spacingRight=4;overflow=hidden;rotatable=0;points=[[0,0.5],[1,0.5]];portConstraint=eastwest;whiteSpace=wrap;" vertex="1" parent="TrfQJ1hGQUsd06bJWgcP-72">
          <mxGeometry y="390" width="210" height="120" as="geometry" />
        </mxCell>
        <mxCell id="TrfQJ1hGQUsd06bJWgcP-80" value="operations" style="text;html=1;strokeColor=none;fillColor=none;align=center;verticalAlign=middle;spacingLeft=4;spacingRight=4;overflow=hidden;rotatable=0;points=[[0,0.5],[1,0.5]];portConstraint=eastwest;whiteSpace=wrap;" vertex="1" parent="TrfQJ1hGQUsd06bJWgcP-72">
          <mxGeometry y="510" width="210" height="20" as="geometry" />
        </mxCell>
        <mxCell id="TrfQJ1hGQUsd06bJWgcP-81" value="ServiceEnseignant" style="swimlane;fontStyle=0;align=center;verticalAlign=top;childLayout=stackLayout;horizontal=1;startSize=55;horizontalStack=0;resizeParent=1;resizeParentMax=0;resizeLast=0;collapsible=0;marginBottom=0;html=1;whiteSpace=wrap;" vertex="1" parent="1">
          <mxGeometry x="-1080" y="900" width="210" height="510" as="geometry" />
        </mxCell>
        <mxCell id="TrfQJ1hGQUsd06bJWgcP-82" value="attributes" style="text;html=1;strokeColor=none;fillColor=none;align=center;verticalAlign=middle;spacingLeft=4;spacingRight=4;overflow=hidden;rotatable=0;points=[[0,0.5],[1,0.5]];portConstraint=eastwest;whiteSpace=wrap;" vertex="1" parent="TrfQJ1hGQUsd06bJWgcP-81">
          <mxGeometry y="55" width="210" height="20" as="geometry" />
        </mxCell>
        <mxCell id="TrfQJ1hGQUsd06bJWgcP-83" value="-idEnseignant: String" style="text;html=1;strokeColor=none;fillColor=none;align=left;verticalAlign=middle;spacingLeft=4;spacingRight=4;overflow=hidden;rotatable=0;points=[[0,0.5],[1,0.5]];portConstraint=eastwest;whiteSpace=wrap;" vertex="1" parent="TrfQJ1hGQUsd06bJWgcP-81">
          <mxGeometry y="75" width="210" height="20" as="geometry" />
        </mxCell>
        <mxCell id="TrfQJ1hGQUsd06bJWgcP-84" value="-nom: String" style="text;html=1;strokeColor=none;fillColor=none;align=left;verticalAlign=middle;spacingLeft=4;spacingRight=4;overflow=hidden;rotatable=0;points=[[0,0.5],[1,0.5]];portConstraint=eastwest;fontColor=#808080;whiteSpace=wrap;" vertex="1" parent="TrfQJ1hGQUsd06bJWgcP-81">
          <mxGeometry y="95" width="210" height="20" as="geometry" />
        </mxCell>
        <mxCell id="TrfQJ1hGQUsd06bJWgcP-85" value="-prenom:String" style="text;html=1;strokeColor=none;fillColor=none;align=left;verticalAlign=middle;spacingLeft=4;spacingRight=4;overflow=hidden;rotatable=0;points=[[0,0.5],[1,0.5]];portConstraint=eastwest;whiteSpace=wrap;" vertex="1" parent="TrfQJ1hGQUsd06bJWgcP-81">
          <mxGeometry y="115" width="210" height="20" as="geometry" />
        </mxCell>
        <mxCell id="TrfQJ1hGQUsd06bJWgcP-86" value="-specialisation:String" style="text;html=1;strokeColor=none;fillColor=none;align=left;verticalAlign=middle;spacingLeft=4;spacingRight=4;overflow=hidden;rotatable=0;points=[[0,0.5],[1,0.5]];portConstraint=eastwest;whiteSpace=wrap;" vertex="1" parent="TrfQJ1hGQUsd06bJWgcP-81">
          <mxGeometry y="135" width="210" height="20" as="geometry" />
        </mxCell>
        <mxCell id="TrfQJ1hGQUsd06bJWgcP-87" value="" style="line;strokeWidth=1;fillColor=none;align=left;verticalAlign=middle;spacingTop=-1;spacingLeft=3;spacingRight=3;rotatable=0;labelPosition=right;points=[];portConstraint=eastwest;" vertex="1" parent="TrfQJ1hGQUsd06bJWgcP-81">
          <mxGeometry y="155" width="210" height="215" as="geometry" />
        </mxCell>
        <mxCell id="TrfQJ1hGQUsd06bJWgcP-88" value="+&amp;nbsp;attribuerCours()&lt;div&gt;&lt;span style=&quot;background-color: initial;&quot;&gt;&amp;nbsp;+&amp;nbsp;&lt;/span&gt;&lt;span style=&quot;background-color: initial;&quot;&gt;obtenirListeCours()&lt;/span&gt;&lt;/div&gt;" style="text;html=1;strokeColor=none;fillColor=none;align=left;verticalAlign=middle;spacingLeft=4;spacingRight=4;overflow=hidden;rotatable=0;points=[[0,0.5],[1,0.5]];portConstraint=eastwest;whiteSpace=wrap;" vertex="1" parent="TrfQJ1hGQUsd06bJWgcP-81">
          <mxGeometry y="370" width="210" height="120" as="geometry" />
        </mxCell>
        <mxCell id="TrfQJ1hGQUsd06bJWgcP-89" value="operations" style="text;html=1;strokeColor=none;fillColor=none;align=center;verticalAlign=middle;spacingLeft=4;spacingRight=4;overflow=hidden;rotatable=0;points=[[0,0.5],[1,0.5]];portConstraint=eastwest;whiteSpace=wrap;" vertex="1" parent="TrfQJ1hGQUsd06bJWgcP-81">
          <mxGeometry y="490" width="210" height="20" as="geometry" />
        </mxCell>
        <mxCell id="TrfQJ1hGQUsd06bJWgcP-112" value="DepenseService" style="swimlane;fontStyle=0;align=center;verticalAlign=top;childLayout=stackLayout;horizontal=1;startSize=55;horizontalStack=0;resizeParent=1;resizeParentMax=0;resizeLast=0;collapsible=0;marginBottom=0;html=1;whiteSpace=wrap;" vertex="1" parent="1">
          <mxGeometry x="-340" y="910" width="210" height="510" as="geometry" />
        </mxCell>
        <mxCell id="TrfQJ1hGQUsd06bJWgcP-113" value="attributes" style="text;html=1;strokeColor=none;fillColor=none;align=center;verticalAlign=middle;spacingLeft=4;spacingRight=4;overflow=hidden;rotatable=0;points=[[0,0.5],[1,0.5]];portConstraint=eastwest;whiteSpace=wrap;" vertex="1" parent="TrfQJ1hGQUsd06bJWgcP-112">
          <mxGeometry y="55" width="210" height="20" as="geometry" />
        </mxCell>
        <mxCell id="TrfQJ1hGQUsd06bJWgcP-114" value="- idDepense: String" style="text;html=1;strokeColor=none;fillColor=none;align=left;verticalAlign=middle;spacingLeft=4;spacingRight=4;overflow=hidden;rotatable=0;points=[[0,0.5],[1,0.5]];portConstraint=eastwest;whiteSpace=wrap;" vertex="1" parent="TrfQJ1hGQUsd06bJWgcP-112">
          <mxGeometry y="75" width="210" height="20" as="geometry" />
        </mxCell>
        <mxCell id="TrfQJ1hGQUsd06bJWgcP-115" value="-montant: String" style="text;html=1;strokeColor=none;fillColor=none;align=left;verticalAlign=middle;spacingLeft=4;spacingRight=4;overflow=hidden;rotatable=0;points=[[0,0.5],[1,0.5]];portConstraint=eastwest;fontColor=#808080;whiteSpace=wrap;" vertex="1" parent="TrfQJ1hGQUsd06bJWgcP-112">
          <mxGeometry y="95" width="210" height="20" as="geometry" />
        </mxCell>
        <mxCell id="TrfQJ1hGQUsd06bJWgcP-116" value="-categorie:String" style="text;html=1;strokeColor=none;fillColor=none;align=left;verticalAlign=middle;spacingLeft=4;spacingRight=4;overflow=hidden;rotatable=0;points=[[0,0.5],[1,0.5]];portConstraint=eastwest;whiteSpace=wrap;" vertex="1" parent="TrfQJ1hGQUsd06bJWgcP-112">
          <mxGeometry y="115" width="210" height="20" as="geometry" />
        </mxCell>
        <mxCell id="TrfQJ1hGQUsd06bJWgcP-117" value="-date:date" style="text;html=1;strokeColor=none;fillColor=none;align=left;verticalAlign=middle;spacingLeft=4;spacingRight=4;overflow=hidden;rotatable=0;points=[[0,0.5],[1,0.5]];portConstraint=eastwest;whiteSpace=wrap;" vertex="1" parent="TrfQJ1hGQUsd06bJWgcP-112">
          <mxGeometry y="135" width="210" height="20" as="geometry" />
        </mxCell>
        <mxCell id="TrfQJ1hGQUsd06bJWgcP-120" value="" style="line;strokeWidth=1;fillColor=none;align=left;verticalAlign=middle;spacingTop=-1;spacingLeft=3;spacingRight=3;rotatable=0;labelPosition=right;points=[];portConstraint=eastwest;" vertex="1" parent="TrfQJ1hGQUsd06bJWgcP-112">
          <mxGeometry y="155" width="210" height="215" as="geometry" />
        </mxCell>
        <mxCell id="TrfQJ1hGQUsd06bJWgcP-121" value="+ ajouterDepense()&lt;br&gt;&lt;div&gt;+&amp;nbsp;supprimerDepense()&lt;/div&gt;&lt;div&gt;+&amp;nbsp;listeDepenses()&lt;/div&gt;" style="text;html=1;strokeColor=none;fillColor=none;align=left;verticalAlign=middle;spacingLeft=4;spacingRight=4;overflow=hidden;rotatable=0;points=[[0,0.5],[1,0.5]];portConstraint=eastwest;whiteSpace=wrap;" vertex="1" parent="TrfQJ1hGQUsd06bJWgcP-112">
          <mxGeometry y="370" width="210" height="120" as="geometry" />
        </mxCell>
        <mxCell id="TrfQJ1hGQUsd06bJWgcP-122" value="operations" style="text;html=1;strokeColor=none;fillColor=none;align=center;verticalAlign=middle;spacingLeft=4;spacingRight=4;overflow=hidden;rotatable=0;points=[[0,0.5],[1,0.5]];portConstraint=eastwest;whiteSpace=wrap;" vertex="1" parent="TrfQJ1hGQUsd06bJWgcP-112">
          <mxGeometry y="490" width="210" height="20" as="geometry" />
        </mxCell>
        <mxCell id="TrfQJ1hGQUsd06bJWgcP-123" value="PayeService" style="swimlane;fontStyle=0;align=center;verticalAlign=top;childLayout=stackLayout;horizontal=1;startSize=55;horizontalStack=0;resizeParent=1;resizeParentMax=0;resizeLast=0;collapsible=0;marginBottom=0;html=1;whiteSpace=wrap;" vertex="1" parent="1">
          <mxGeometry x="-740" y="1460" width="210" height="530" as="geometry" />
        </mxCell>
        <mxCell id="TrfQJ1hGQUsd06bJWgcP-124" value="attributes" style="text;html=1;strokeColor=none;fillColor=none;align=center;verticalAlign=middle;spacingLeft=4;spacingRight=4;overflow=hidden;rotatable=0;points=[[0,0.5],[1,0.5]];portConstraint=eastwest;whiteSpace=wrap;" vertex="1" parent="TrfQJ1hGQUsd06bJWgcP-123">
          <mxGeometry y="55" width="210" height="20" as="geometry" />
        </mxCell>
        <mxCell id="TrfQJ1hGQUsd06bJWgcP-125" value="-idPaiement: String" style="text;html=1;strokeColor=none;fillColor=none;align=left;verticalAlign=middle;spacingLeft=4;spacingRight=4;overflow=hidden;rotatable=0;points=[[0,0.5],[1,0.5]];portConstraint=eastwest;whiteSpace=wrap;" vertex="1" parent="TrfQJ1hGQUsd06bJWgcP-123">
          <mxGeometry y="75" width="210" height="20" as="geometry" />
        </mxCell>
        <mxCell id="TrfQJ1hGQUsd06bJWgcP-126" value="- &lt;code&gt;montant&lt;/code&gt;: String" style="text;html=1;strokeColor=none;fillColor=none;align=left;verticalAlign=middle;spacingLeft=4;spacingRight=4;overflow=hidden;rotatable=0;points=[[0,0.5],[1,0.5]];portConstraint=eastwest;fontColor=#808080;whiteSpace=wrap;" vertex="1" parent="TrfQJ1hGQUsd06bJWgcP-123">
          <mxGeometry y="95" width="210" height="20" as="geometry" />
        </mxCell>
        <mxCell id="TrfQJ1hGQUsd06bJWgcP-127" value="-datePaiement:String" style="text;html=1;strokeColor=none;fillColor=none;align=left;verticalAlign=middle;spacingLeft=4;spacingRight=4;overflow=hidden;rotatable=0;points=[[0,0.5],[1,0.5]];portConstraint=eastwest;whiteSpace=wrap;" vertex="1" parent="TrfQJ1hGQUsd06bJWgcP-123">
          <mxGeometry y="115" width="210" height="20" as="geometry" />
        </mxCell>
        <mxCell id="TrfQJ1hGQUsd06bJWgcP-128" value="-statutpayement:enum" style="text;html=1;strokeColor=none;fillColor=none;align=left;verticalAlign=middle;spacingLeft=4;spacingRight=4;overflow=hidden;rotatable=0;points=[[0,0.5],[1,0.5]];portConstraint=eastwest;whiteSpace=wrap;" vertex="1" parent="TrfQJ1hGQUsd06bJWgcP-123">
          <mxGeometry y="135" width="210" height="20" as="geometry" />
        </mxCell>
        <mxCell id="TrfQJ1hGQUsd06bJWgcP-129" value="-modepayement:enum" style="text;html=1;strokeColor=none;fillColor=none;align=left;verticalAlign=middle;spacingLeft=4;spacingRight=4;overflow=hidden;rotatable=0;points=[[0,0.5],[1,0.5]];portConstraint=eastwest;whiteSpace=wrap;" vertex="1" parent="TrfQJ1hGQUsd06bJWgcP-123">
          <mxGeometry y="155" width="210" height="20" as="geometry" />
        </mxCell>
        <mxCell id="TrfQJ1hGQUsd06bJWgcP-130" value="" style="line;strokeWidth=1;fillColor=none;align=left;verticalAlign=middle;spacingTop=-1;spacingLeft=3;spacingRight=3;rotatable=0;labelPosition=right;points=[];portConstraint=eastwest;" vertex="1" parent="TrfQJ1hGQUsd06bJWgcP-123">
          <mxGeometry y="175" width="210" height="215" as="geometry" />
        </mxCell>
        <mxCell id="TrfQJ1hGQUsd06bJWgcP-131" value="&lt;div&gt;&lt;div&gt;+&amp;nbsp;calculerPaye()&lt;div&gt;+&amp;nbsp;effectuerPaiement()&lt;/div&gt;&lt;div&gt;+&amp;nbsp;genererReleve()&lt;/div&gt;&lt;/div&gt;&lt;/div&gt;" style="text;html=1;strokeColor=none;fillColor=none;align=left;verticalAlign=middle;spacingLeft=4;spacingRight=4;overflow=hidden;rotatable=0;points=[[0,0.5],[1,0.5]];portConstraint=eastwest;whiteSpace=wrap;" vertex="1" parent="TrfQJ1hGQUsd06bJWgcP-123">
          <mxGeometry y="390" width="210" height="120" as="geometry" />
        </mxCell>
        <mxCell id="TrfQJ1hGQUsd06bJWgcP-132" value="operations" style="text;html=1;strokeColor=none;fillColor=none;align=center;verticalAlign=middle;spacingLeft=4;spacingRight=4;overflow=hidden;rotatable=0;points=[[0,0.5],[1,0.5]];portConstraint=eastwest;whiteSpace=wrap;" vertex="1" parent="TrfQJ1hGQUsd06bJWgcP-123">
          <mxGeometry y="510" width="210" height="20" as="geometry" />
        </mxCell>
        <mxCell id="TrfQJ1hGQUsd06bJWgcP-133" value="Comptabilite" style="swimlane;fontStyle=0;align=center;verticalAlign=top;childLayout=stackLayout;horizontal=1;startSize=55;horizontalStack=0;resizeParent=1;resizeParentMax=0;resizeLast=0;collapsible=0;marginBottom=0;html=1;whiteSpace=wrap;" vertex="1" parent="1">
          <mxGeometry x="-90" y="920" width="210" height="490" as="geometry" />
        </mxCell>
        <mxCell id="TrfQJ1hGQUsd06bJWgcP-134" value="attributes" style="text;html=1;strokeColor=none;fillColor=none;align=center;verticalAlign=middle;spacingLeft=4;spacingRight=4;overflow=hidden;rotatable=0;points=[[0,0.5],[1,0.5]];portConstraint=eastwest;whiteSpace=wrap;" vertex="1" parent="TrfQJ1hGQUsd06bJWgcP-133">
          <mxGeometry y="55" width="210" height="20" as="geometry" />
        </mxCell>
        <mxCell id="TrfQJ1hGQUsd06bJWgcP-135" value="- idCompte: String" style="text;html=1;strokeColor=none;fillColor=none;align=left;verticalAlign=middle;spacingLeft=4;spacingRight=4;overflow=hidden;rotatable=0;points=[[0,0.5],[1,0.5]];portConstraint=eastwest;whiteSpace=wrap;" vertex="1" parent="TrfQJ1hGQUsd06bJWgcP-133">
          <mxGeometry y="75" width="210" height="20" as="geometry" />
        </mxCell>
        <mxCell id="TrfQJ1hGQUsd06bJWgcP-136" value="-typeCompte: String" style="text;html=1;strokeColor=none;fillColor=none;align=left;verticalAlign=middle;spacingLeft=4;spacingRight=4;overflow=hidden;rotatable=0;points=[[0,0.5],[1,0.5]];portConstraint=eastwest;fontColor=#808080;whiteSpace=wrap;" vertex="1" parent="TrfQJ1hGQUsd06bJWgcP-133">
          <mxGeometry y="95" width="210" height="20" as="geometry" />
        </mxCell>
        <mxCell id="TrfQJ1hGQUsd06bJWgcP-137" value="-&amp;nbsp;balance:Double" style="text;html=1;strokeColor=none;fillColor=none;align=left;verticalAlign=middle;spacingLeft=4;spacingRight=4;overflow=hidden;rotatable=0;points=[[0,0.5],[1,0.5]];portConstraint=eastwest;whiteSpace=wrap;" vertex="1" parent="TrfQJ1hGQUsd06bJWgcP-133">
          <mxGeometry y="115" width="210" height="20" as="geometry" />
        </mxCell>
        <mxCell id="TrfQJ1hGQUsd06bJWgcP-139" value="" style="line;strokeWidth=1;fillColor=none;align=left;verticalAlign=middle;spacingTop=-1;spacingLeft=3;spacingRight=3;rotatable=0;labelPosition=right;points=[];portConstraint=eastwest;" vertex="1" parent="TrfQJ1hGQUsd06bJWgcP-133">
          <mxGeometry y="135" width="210" height="215" as="geometry" />
        </mxCell>
        <mxCell id="TrfQJ1hGQUsd06bJWgcP-140" value="+ enregistrerTransaction()&lt;br&gt;&lt;div&gt;+&amp;nbsp;genererRapport()&lt;/div&gt;" style="text;html=1;strokeColor=none;fillColor=none;align=left;verticalAlign=middle;spacingLeft=4;spacingRight=4;overflow=hidden;rotatable=0;points=[[0,0.5],[1,0.5]];portConstraint=eastwest;whiteSpace=wrap;" vertex="1" parent="TrfQJ1hGQUsd06bJWgcP-133">
          <mxGeometry y="350" width="210" height="120" as="geometry" />
        </mxCell>
        <mxCell id="TrfQJ1hGQUsd06bJWgcP-141" value="operations" style="text;html=1;strokeColor=none;fillColor=none;align=center;verticalAlign=middle;spacingLeft=4;spacingRight=4;overflow=hidden;rotatable=0;points=[[0,0.5],[1,0.5]];portConstraint=eastwest;whiteSpace=wrap;" vertex="1" parent="TrfQJ1hGQUsd06bJWgcP-133">
          <mxGeometry y="470" width="210" height="20" as="geometry" />
        </mxCell>
        <mxCell id="TrfQJ1hGQUsd06bJWgcP-142" value="AssiduiteService" style="swimlane;fontStyle=0;align=center;verticalAlign=top;childLayout=stackLayout;horizontal=1;startSize=55;horizontalStack=0;resizeParent=1;resizeParentMax=0;resizeLast=0;collapsible=0;marginBottom=0;html=1;whiteSpace=wrap;" vertex="1" parent="1">
          <mxGeometry x="-1380" y="1460" width="210" height="535" as="geometry" />
        </mxCell>
        <mxCell id="TrfQJ1hGQUsd06bJWgcP-143" value="attributes" style="text;html=1;strokeColor=none;fillColor=none;align=center;verticalAlign=middle;spacingLeft=4;spacingRight=4;overflow=hidden;rotatable=0;points=[[0,0.5],[1,0.5]];portConstraint=eastwest;whiteSpace=wrap;" vertex="1" parent="TrfQJ1hGQUsd06bJWgcP-142">
          <mxGeometry y="55" width="210" height="20" as="geometry" />
        </mxCell>
        <mxCell id="TrfQJ1hGQUsd06bJWgcP-144" value="- id: String" style="text;html=1;strokeColor=none;fillColor=none;align=left;verticalAlign=middle;spacingLeft=4;spacingRight=4;overflow=hidden;rotatable=0;points=[[0,0.5],[1,0.5]];portConstraint=eastwest;whiteSpace=wrap;" vertex="1" parent="TrfQJ1hGQUsd06bJWgcP-142">
          <mxGeometry y="75" width="210" height="20" as="geometry" />
        </mxCell>
        <mxCell id="TrfQJ1hGQUsd06bJWgcP-145" value="-date: Date" style="text;html=1;strokeColor=none;fillColor=none;align=left;verticalAlign=middle;spacingLeft=4;spacingRight=4;overflow=hidden;rotatable=0;points=[[0,0.5],[1,0.5]];portConstraint=eastwest;fontColor=#808080;whiteSpace=wrap;" vertex="1" parent="TrfQJ1hGQUsd06bJWgcP-142">
          <mxGeometry y="95" width="210" height="20" as="geometry" />
        </mxCell>
        <mxCell id="TrfQJ1hGQUsd06bJWgcP-146" value="- presence:String&lt;div&gt;- commentaires:String&lt;/div&gt;" style="text;html=1;strokeColor=none;fillColor=none;align=left;verticalAlign=middle;spacingLeft=4;spacingRight=4;overflow=hidden;rotatable=0;points=[[0,0.5],[1,0.5]];portConstraint=eastwest;whiteSpace=wrap;" vertex="1" parent="TrfQJ1hGQUsd06bJWgcP-142">
          <mxGeometry y="115" width="210" height="65" as="geometry" />
        </mxCell>
        <mxCell id="TrfQJ1hGQUsd06bJWgcP-147" value="" style="line;strokeWidth=1;fillColor=none;align=left;verticalAlign=middle;spacingTop=-1;spacingLeft=3;spacingRight=3;rotatable=0;labelPosition=right;points=[];portConstraint=eastwest;" vertex="1" parent="TrfQJ1hGQUsd06bJWgcP-142">
          <mxGeometry y="180" width="210" height="215" as="geometry" />
        </mxCell>
        <mxCell id="TrfQJ1hGQUsd06bJWgcP-149" value="operations" style="text;html=1;strokeColor=none;fillColor=none;align=center;verticalAlign=middle;spacingLeft=4;spacingRight=4;overflow=hidden;rotatable=0;points=[[0,0.5],[1,0.5]];portConstraint=eastwest;whiteSpace=wrap;" vertex="1" parent="TrfQJ1hGQUsd06bJWgcP-142">
          <mxGeometry y="395" width="210" height="20" as="geometry" />
        </mxCell>
        <mxCell id="TrfQJ1hGQUsd06bJWgcP-148" value="+ enregistrerAssiduite()&lt;div&gt;+&amp;nbsp;miseAJourAssiduite()&lt;/div&gt;" style="text;html=1;strokeColor=none;fillColor=none;align=left;verticalAlign=middle;spacingLeft=4;spacingRight=4;overflow=hidden;rotatable=0;points=[[0,0.5],[1,0.5]];portConstraint=eastwest;whiteSpace=wrap;" vertex="1" parent="TrfQJ1hGQUsd06bJWgcP-142">
          <mxGeometry y="415" width="210" height="120" as="geometry" />
        </mxCell>
        <mxCell id="TrfQJ1hGQUsd06bJWgcP-150" value="CarriereService" style="swimlane;fontStyle=0;align=center;verticalAlign=top;childLayout=stackLayout;horizontal=1;startSize=55;horizontalStack=0;resizeParent=1;resizeParentMax=0;resizeLast=0;collapsible=0;marginBottom=0;html=1;whiteSpace=wrap;" vertex="1" parent="1">
          <mxGeometry x="-1100" y="1460" width="210" height="535" as="geometry" />
        </mxCell>
        <mxCell id="TrfQJ1hGQUsd06bJWgcP-151" value="attributes" style="text;html=1;strokeColor=none;fillColor=none;align=center;verticalAlign=middle;spacingLeft=4;spacingRight=4;overflow=hidden;rotatable=0;points=[[0,0.5],[1,0.5]];portConstraint=eastwest;whiteSpace=wrap;" vertex="1" parent="TrfQJ1hGQUsd06bJWgcP-150">
          <mxGeometry y="55" width="210" height="20" as="geometry" />
        </mxCell>
        <mxCell id="TrfQJ1hGQUsd06bJWgcP-152" value="- idCarriere: Long" style="text;html=1;strokeColor=none;fillColor=none;align=left;verticalAlign=middle;spacingLeft=4;spacingRight=4;overflow=hidden;rotatable=0;points=[[0,0.5],[1,0.5]];portConstraint=eastwest;whiteSpace=wrap;" vertex="1" parent="TrfQJ1hGQUsd06bJWgcP-150">
          <mxGeometry y="75" width="210" height="20" as="geometry" />
        </mxCell>
        <mxCell id="TrfQJ1hGQUsd06bJWgcP-153" value="-datePromotion: Date" style="text;html=1;strokeColor=none;fillColor=none;align=left;verticalAlign=middle;spacingLeft=4;spacingRight=4;overflow=hidden;rotatable=0;points=[[0,0.5],[1,0.5]];portConstraint=eastwest;fontColor=#808080;whiteSpace=wrap;" vertex="1" parent="TrfQJ1hGQUsd06bJWgcP-150">
          <mxGeometry y="95" width="210" height="20" as="geometry" />
        </mxCell>
        <mxCell id="TrfQJ1hGQUsd06bJWgcP-154" value="- poste : String" style="text;html=1;strokeColor=none;fillColor=none;align=left;verticalAlign=middle;spacingLeft=4;spacingRight=4;overflow=hidden;rotatable=0;points=[[0,0.5],[1,0.5]];portConstraint=eastwest;whiteSpace=wrap;" vertex="1" parent="TrfQJ1hGQUsd06bJWgcP-150">
          <mxGeometry y="115" width="210" height="65" as="geometry" />
        </mxCell>
        <mxCell id="TrfQJ1hGQUsd06bJWgcP-155" value="" style="line;strokeWidth=1;fillColor=none;align=left;verticalAlign=middle;spacingTop=-1;spacingLeft=3;spacingRight=3;rotatable=0;labelPosition=right;points=[];portConstraint=eastwest;" vertex="1" parent="TrfQJ1hGQUsd06bJWgcP-150">
          <mxGeometry y="180" width="210" height="215" as="geometry" />
        </mxCell>
        <mxCell id="TrfQJ1hGQUsd06bJWgcP-156" value="operations" style="text;html=1;strokeColor=none;fillColor=none;align=center;verticalAlign=middle;spacingLeft=4;spacingRight=4;overflow=hidden;rotatable=0;points=[[0,0.5],[1,0.5]];portConstraint=eastwest;whiteSpace=wrap;" vertex="1" parent="TrfQJ1hGQUsd06bJWgcP-150">
          <mxGeometry y="395" width="210" height="20" as="geometry" />
        </mxCell>
        <mxCell id="TrfQJ1hGQUsd06bJWgcP-157" value="+ suivreCarriere()&lt;br&gt;&lt;div&gt;+&amp;nbsp;mettreAJourCarriere()&lt;/div&gt;" style="text;html=1;strokeColor=none;fillColor=none;align=left;verticalAlign=middle;spacingLeft=4;spacingRight=4;overflow=hidden;rotatable=0;points=[[0,0.5],[1,0.5]];portConstraint=eastwest;whiteSpace=wrap;" vertex="1" parent="TrfQJ1hGQUsd06bJWgcP-150">
          <mxGeometry y="415" width="210" height="120" as="geometry" />
        </mxCell>
        <mxCell id="TrfQJ1hGQUsd06bJWgcP-158" value="NotificationService" style="swimlane;fontStyle=0;align=center;verticalAlign=top;childLayout=stackLayout;horizontal=1;startSize=55;horizontalStack=0;resizeParent=1;resizeParentMax=0;resizeLast=0;collapsible=0;marginBottom=0;html=1;whiteSpace=wrap;" vertex="1" parent="1">
          <mxGeometry x="-350" y="1485" width="210" height="510" as="geometry" />
        </mxCell>
        <mxCell id="TrfQJ1hGQUsd06bJWgcP-159" value="attributes" style="text;html=1;strokeColor=none;fillColor=none;align=center;verticalAlign=middle;spacingLeft=4;spacingRight=4;overflow=hidden;rotatable=0;points=[[0,0.5],[1,0.5]];portConstraint=eastwest;whiteSpace=wrap;" vertex="1" parent="TrfQJ1hGQUsd06bJWgcP-158">
          <mxGeometry y="55" width="210" height="20" as="geometry" />
        </mxCell>
        <mxCell id="TrfQJ1hGQUsd06bJWgcP-160" value="- idNotification: String" style="text;html=1;strokeColor=none;fillColor=none;align=left;verticalAlign=middle;spacingLeft=4;spacingRight=4;overflow=hidden;rotatable=0;points=[[0,0.5],[1,0.5]];portConstraint=eastwest;whiteSpace=wrap;" vertex="1" parent="TrfQJ1hGQUsd06bJWgcP-158">
          <mxGeometry y="75" width="210" height="20" as="geometry" />
        </mxCell>
        <mxCell id="TrfQJ1hGQUsd06bJWgcP-161" value="-typeNotification: String" style="text;html=1;strokeColor=none;fillColor=none;align=left;verticalAlign=middle;spacingLeft=4;spacingRight=4;overflow=hidden;rotatable=0;points=[[0,0.5],[1,0.5]];portConstraint=eastwest;fontColor=#808080;whiteSpace=wrap;" vertex="1" parent="TrfQJ1hGQUsd06bJWgcP-158">
          <mxGeometry y="95" width="210" height="20" as="geometry" />
        </mxCell>
        <mxCell id="TrfQJ1hGQUsd06bJWgcP-162" value="-contenu:String" style="text;html=1;strokeColor=none;fillColor=none;align=left;verticalAlign=middle;spacingLeft=4;spacingRight=4;overflow=hidden;rotatable=0;points=[[0,0.5],[1,0.5]];portConstraint=eastwest;whiteSpace=wrap;" vertex="1" parent="TrfQJ1hGQUsd06bJWgcP-158">
          <mxGeometry y="115" width="210" height="20" as="geometry" />
        </mxCell>
        <mxCell id="TrfQJ1hGQUsd06bJWgcP-163" value="- dateEnvoi:Date" style="text;html=1;strokeColor=none;fillColor=none;align=left;verticalAlign=middle;spacingLeft=4;spacingRight=4;overflow=hidden;rotatable=0;points=[[0,0.5],[1,0.5]];portConstraint=eastwest;whiteSpace=wrap;" vertex="1" parent="TrfQJ1hGQUsd06bJWgcP-158">
          <mxGeometry y="135" width="210" height="20" as="geometry" />
        </mxCell>
        <mxCell id="TrfQJ1hGQUsd06bJWgcP-164" value="" style="line;strokeWidth=1;fillColor=none;align=left;verticalAlign=middle;spacingTop=-1;spacingLeft=3;spacingRight=3;rotatable=0;labelPosition=right;points=[];portConstraint=eastwest;" vertex="1" parent="TrfQJ1hGQUsd06bJWgcP-158">
          <mxGeometry y="155" width="210" height="215" as="geometry" />
        </mxCell>
        <mxCell id="TrfQJ1hGQUsd06bJWgcP-165" value="+ envoyerNotification()&lt;br&gt;&lt;div&gt;+&amp;nbsp;historiqueNotifications()&lt;/div&gt;" style="text;html=1;strokeColor=none;fillColor=none;align=left;verticalAlign=middle;spacingLeft=4;spacingRight=4;overflow=hidden;rotatable=0;points=[[0,0.5],[1,0.5]];portConstraint=eastwest;whiteSpace=wrap;" vertex="1" parent="TrfQJ1hGQUsd06bJWgcP-158">
          <mxGeometry y="370" width="210" height="120" as="geometry" />
        </mxCell>
        <mxCell id="TrfQJ1hGQUsd06bJWgcP-166" value="operations" style="text;html=1;strokeColor=none;fillColor=none;align=center;verticalAlign=middle;spacingLeft=4;spacingRight=4;overflow=hidden;rotatable=0;points=[[0,0.5],[1,0.5]];portConstraint=eastwest;whiteSpace=wrap;" vertex="1" parent="TrfQJ1hGQUsd06bJWgcP-158">
          <mxGeometry y="490" width="210" height="20" as="geometry" />
        </mxCell>
        <mxCell id="TrfQJ1hGQUsd06bJWgcP-167" value="MessageService" style="swimlane;fontStyle=0;align=center;verticalAlign=top;childLayout=stackLayout;horizontal=1;startSize=55;horizontalStack=0;resizeParent=1;resizeParentMax=0;resizeLast=0;collapsible=0;marginBottom=0;html=1;whiteSpace=wrap;" vertex="1" parent="1">
          <mxGeometry x="-90" y="1490" width="210" height="510" as="geometry" />
        </mxCell>
        <mxCell id="TrfQJ1hGQUsd06bJWgcP-168" value="attributes" style="text;html=1;strokeColor=none;fillColor=none;align=center;verticalAlign=middle;spacingLeft=4;spacingRight=4;overflow=hidden;rotatable=0;points=[[0,0.5],[1,0.5]];portConstraint=eastwest;whiteSpace=wrap;" vertex="1" parent="TrfQJ1hGQUsd06bJWgcP-167">
          <mxGeometry y="55" width="210" height="20" as="geometry" />
        </mxCell>
        <mxCell id="TrfQJ1hGQUsd06bJWgcP-169" value="- idMessage: String" style="text;html=1;strokeColor=none;fillColor=none;align=left;verticalAlign=middle;spacingLeft=4;spacingRight=4;overflow=hidden;rotatable=0;points=[[0,0.5],[1,0.5]];portConstraint=eastwest;whiteSpace=wrap;" vertex="1" parent="TrfQJ1hGQUsd06bJWgcP-167">
          <mxGeometry y="75" width="210" height="20" as="geometry" />
        </mxCell>
        <mxCell id="TrfQJ1hGQUsd06bJWgcP-170" value="- emetteur: String" style="text;html=1;strokeColor=none;fillColor=none;align=left;verticalAlign=middle;spacingLeft=4;spacingRight=4;overflow=hidden;rotatable=0;points=[[0,0.5],[1,0.5]];portConstraint=eastwest;fontColor=#808080;whiteSpace=wrap;" vertex="1" parent="TrfQJ1hGQUsd06bJWgcP-167">
          <mxGeometry y="95" width="210" height="20" as="geometry" />
        </mxCell>
        <mxCell id="TrfQJ1hGQUsd06bJWgcP-171" value="- destinataire:String" style="text;html=1;strokeColor=none;fillColor=none;align=left;verticalAlign=middle;spacingLeft=4;spacingRight=4;overflow=hidden;rotatable=0;points=[[0,0.5],[1,0.5]];portConstraint=eastwest;whiteSpace=wrap;" vertex="1" parent="TrfQJ1hGQUsd06bJWgcP-167">
          <mxGeometry y="115" width="210" height="20" as="geometry" />
        </mxCell>
        <mxCell id="TrfQJ1hGQUsd06bJWgcP-172" value="- contenu:string" style="text;html=1;strokeColor=none;fillColor=none;align=left;verticalAlign=middle;spacingLeft=4;spacingRight=4;overflow=hidden;rotatable=0;points=[[0,0.5],[1,0.5]];portConstraint=eastwest;whiteSpace=wrap;" vertex="1" parent="TrfQJ1hGQUsd06bJWgcP-167">
          <mxGeometry y="135" width="210" height="20" as="geometry" />
        </mxCell>
        <mxCell id="TrfQJ1hGQUsd06bJWgcP-173" value="" style="line;strokeWidth=1;fillColor=none;align=left;verticalAlign=middle;spacingTop=-1;spacingLeft=3;spacingRight=3;rotatable=0;labelPosition=right;points=[];portConstraint=eastwest;" vertex="1" parent="TrfQJ1hGQUsd06bJWgcP-167">
          <mxGeometry y="155" width="210" height="215" as="geometry" />
        </mxCell>
        <mxCell id="TrfQJ1hGQUsd06bJWgcP-174" value="&lt;div&gt;+ envoyerMessage()&lt;/div&gt;&lt;div&gt;+&amp;nbsp;recupererMessages()&lt;/div&gt;" style="text;html=1;strokeColor=none;fillColor=none;align=left;verticalAlign=middle;spacingLeft=4;spacingRight=4;overflow=hidden;rotatable=0;points=[[0,0.5],[1,0.5]];portConstraint=eastwest;whiteSpace=wrap;" vertex="1" parent="TrfQJ1hGQUsd06bJWgcP-167">
          <mxGeometry y="370" width="210" height="120" as="geometry" />
        </mxCell>
        <mxCell id="TrfQJ1hGQUsd06bJWgcP-175" value="operations" style="text;html=1;strokeColor=none;fillColor=none;align=center;verticalAlign=middle;spacingLeft=4;spacingRight=4;overflow=hidden;rotatable=0;points=[[0,0.5],[1,0.5]];portConstraint=eastwest;whiteSpace=wrap;" vertex="1" parent="TrfQJ1hGQUsd06bJWgcP-167">
          <mxGeometry y="490" width="210" height="20" as="geometry" />
        </mxCell>
        <mxCell id="TrfQJ1hGQUsd06bJWgcP-176" value="PredictionService" style="swimlane;fontStyle=0;align=center;verticalAlign=top;childLayout=stackLayout;horizontal=1;startSize=55;horizontalStack=0;resizeParent=1;resizeParentMax=0;resizeLast=0;collapsible=0;marginBottom=0;html=1;whiteSpace=wrap;" vertex="1" parent="1">
          <mxGeometry x="-1640" y="1500" width="210" height="490" as="geometry" />
        </mxCell>
        <mxCell id="TrfQJ1hGQUsd06bJWgcP-177" value="attributes" style="text;html=1;strokeColor=none;fillColor=none;align=center;verticalAlign=middle;spacingLeft=4;spacingRight=4;overflow=hidden;rotatable=0;points=[[0,0.5],[1,0.5]];portConstraint=eastwest;whiteSpace=wrap;" vertex="1" parent="TrfQJ1hGQUsd06bJWgcP-176">
          <mxGeometry y="55" width="210" height="20" as="geometry" />
        </mxCell>
        <mxCell id="TrfQJ1hGQUsd06bJWgcP-178" value="- idPrediction: String" style="text;html=1;strokeColor=none;fillColor=none;align=left;verticalAlign=middle;spacingLeft=4;spacingRight=4;overflow=hidden;rotatable=0;points=[[0,0.5],[1,0.5]];portConstraint=eastwest;whiteSpace=wrap;" vertex="1" parent="TrfQJ1hGQUsd06bJWgcP-176">
          <mxGeometry y="75" width="210" height="20" as="geometry" />
        </mxCell>
        <mxCell id="TrfQJ1hGQUsd06bJWgcP-179" value="- idEtudiant: String" style="text;html=1;strokeColor=none;fillColor=none;align=left;verticalAlign=middle;spacingLeft=4;spacingRight=4;overflow=hidden;rotatable=0;points=[[0,0.5],[1,0.5]];portConstraint=eastwest;fontColor=#808080;whiteSpace=wrap;" vertex="1" parent="TrfQJ1hGQUsd06bJWgcP-176">
          <mxGeometry y="95" width="210" height="20" as="geometry" />
        </mxCell>
        <mxCell id="TrfQJ1hGQUsd06bJWgcP-180" value="-resultatPrediction:String" style="text;html=1;strokeColor=none;fillColor=none;align=left;verticalAlign=middle;spacingLeft=4;spacingRight=4;overflow=hidden;rotatable=0;points=[[0,0.5],[1,0.5]];portConstraint=eastwest;whiteSpace=wrap;" vertex="1" parent="TrfQJ1hGQUsd06bJWgcP-176">
          <mxGeometry y="115" width="210" height="20" as="geometry" />
        </mxCell>
        <mxCell id="TrfQJ1hGQUsd06bJWgcP-182" value="" style="line;strokeWidth=1;fillColor=none;align=left;verticalAlign=middle;spacingTop=-1;spacingLeft=3;spacingRight=3;rotatable=0;labelPosition=right;points=[];portConstraint=eastwest;" vertex="1" parent="TrfQJ1hGQUsd06bJWgcP-176">
          <mxGeometry y="135" width="210" height="215" as="geometry" />
        </mxCell>
        <mxCell id="TrfQJ1hGQUsd06bJWgcP-183" value="+ analyserPerformance()&lt;br&gt;&lt;div&gt;+&amp;nbsp;genererRapportPrediction()&lt;/div&gt;" style="text;html=1;strokeColor=none;fillColor=none;align=left;verticalAlign=middle;spacingLeft=4;spacingRight=4;overflow=hidden;rotatable=0;points=[[0,0.5],[1,0.5]];portConstraint=eastwest;whiteSpace=wrap;" vertex="1" parent="TrfQJ1hGQUsd06bJWgcP-176">
          <mxGeometry y="350" width="210" height="120" as="geometry" />
        </mxCell>
        <mxCell id="TrfQJ1hGQUsd06bJWgcP-184" value="operations" style="text;html=1;strokeColor=none;fillColor=none;align=center;verticalAlign=middle;spacingLeft=4;spacingRight=4;overflow=hidden;rotatable=0;points=[[0,0.5],[1,0.5]];portConstraint=eastwest;whiteSpace=wrap;" vertex="1" parent="TrfQJ1hGQUsd06bJWgcP-176">
          <mxGeometry y="470" width="210" height="20" as="geometry" />
        </mxCell>
        <mxCell id="TrfQJ1hGQUsd06bJWgcP-187" value="One-to-Many" style="text;whiteSpace=wrap;html=1;" vertex="1" parent="1">
          <mxGeometry x="-810" y="555" width="100" height="40" as="geometry" />
        </mxCell>
        <mxCell id="TrfQJ1hGQUsd06bJWgcP-189" value="One-to-One" style="text;whiteSpace=wrap;html=1;" vertex="1" parent="1">
          <mxGeometry x="-660" y="320" width="100" height="40" as="geometry" />
        </mxCell>
      </root>
    </mxGraphModel>
  </diagram>
  <diagram id="M5eHlUh0J3fI_xeMtIBE" name="services">
    <mxGraphModel dx="1120" dy="532" grid="1" gridSize="10" guides="1" tooltips="1" connect="1" arrows="1" fold="1" page="1" pageScale="1" pageWidth="827" pageHeight="1169" math="0" shadow="0">
      <root>
        <mxCell id="0" />
        <mxCell id="1" parent="0" />
        <mxCell id="dkv0e34ILGbEo7m2tcsQ-29" style="edgeStyle=orthogonalEdgeStyle;rounded=0;orthogonalLoop=1;jettySize=auto;html=1;entryX=0.5;entryY=0;entryDx=0;entryDy=0;" edge="1" parent="1" source="nxJUqEzjVU8C0fsq4Rj--1" target="dkv0e34ILGbEo7m2tcsQ-28">
          <mxGeometry relative="1" as="geometry" />
        </mxCell>
        <mxCell id="nxJUqEzjVU8C0fsq4Rj--1" value="Service d&#39;Inscription" style="whiteSpace=wrap;html=1;aspect=fixed;" vertex="1" parent="1">
          <mxGeometry x="220" y="150" width="80" height="80" as="geometry" />
        </mxCell>
        <mxCell id="dkv0e34ILGbEo7m2tcsQ-31" style="edgeStyle=orthogonalEdgeStyle;rounded=0;orthogonalLoop=1;jettySize=auto;html=1;entryX=0;entryY=0.5;entryDx=0;entryDy=0;" edge="1" parent="1" source="nxJUqEzjVU8C0fsq4Rj--2" target="dkv0e34ILGbEo7m2tcsQ-30">
          <mxGeometry relative="1" as="geometry" />
        </mxCell>
        <mxCell id="nxJUqEzjVU8C0fsq4Rj--2" value="Gateway" style="whiteSpace=wrap;html=1;aspect=fixed;" vertex="1" parent="1">
          <mxGeometry x="170" y="20" width="80" height="80" as="geometry" />
        </mxCell>
        <mxCell id="dkv0e34ILGbEo7m2tcsQ-23" style="edgeStyle=orthogonalEdgeStyle;rounded=0;orthogonalLoop=1;jettySize=auto;html=1;entryX=0;entryY=0.5;entryDx=0;entryDy=0;" edge="1" parent="1" source="nxJUqEzjVU8C0fsq4Rj--3" target="dkv0e34ILGbEo7m2tcsQ-22">
          <mxGeometry relative="1" as="geometry" />
        </mxCell>
        <mxCell id="nxJUqEzjVU8C0fsq4Rj--3" value="&#xa;Discovery&#xa;&#xa;" style="whiteSpace=wrap;html=1;aspect=fixed;" vertex="1" parent="1">
          <mxGeometry x="180" y="330" width="80" height="80" as="geometry" />
        </mxCell>
        <mxCell id="dkv0e34ILGbEo7m2tcsQ-33" style="edgeStyle=orthogonalEdgeStyle;rounded=0;orthogonalLoop=1;jettySize=auto;html=1;entryX=0;entryY=0.75;entryDx=0;entryDy=0;" edge="1" parent="1" source="nxJUqEzjVU8C0fsq4Rj--4" target="dkv0e34ILGbEo7m2tcsQ-32">
          <mxGeometry relative="1" as="geometry" />
        </mxCell>
        <mxCell id="nxJUqEzjVU8C0fsq4Rj--4" value="Service d’Intégration API Externes" style="whiteSpace=wrap;html=1;aspect=fixed;" vertex="1" parent="1">
          <mxGeometry x="470" y="50" width="80" height="80" as="geometry" />
        </mxCell>
        <mxCell id="dkv0e34ILGbEo7m2tcsQ-26" style="edgeStyle=orthogonalEdgeStyle;rounded=0;orthogonalLoop=1;jettySize=auto;html=1;" edge="1" parent="1" source="nxJUqEzjVU8C0fsq4Rj--5" target="dkv0e34ILGbEo7m2tcsQ-25">
          <mxGeometry relative="1" as="geometry" />
        </mxCell>
        <mxCell id="nxJUqEzjVU8C0fsq4Rj--5" value="Service de Notification" style="whiteSpace=wrap;html=1;aspect=fixed;" vertex="1" parent="1">
          <mxGeometry x="620" y="150" width="80" height="80" as="geometry" />
        </mxCell>
        <mxCell id="dkv0e34ILGbEo7m2tcsQ-21" style="edgeStyle=orthogonalEdgeStyle;rounded=0;orthogonalLoop=1;jettySize=auto;html=1;" edge="1" parent="1" source="nxJUqEzjVU8C0fsq4Rj--6" target="dkv0e34ILGbEo7m2tcsQ-20">
          <mxGeometry relative="1" as="geometry" />
        </mxCell>
        <mxCell id="nxJUqEzjVU8C0fsq4Rj--6" value="&lt;strong&gt;Service de Messagerie&lt;/strong&gt;" style="whiteSpace=wrap;html=1;aspect=fixed;" vertex="1" parent="1">
          <mxGeometry x="690" y="310" width="80" height="80" as="geometry" />
        </mxCell>
        <mxCell id="dkv0e34ILGbEo7m2tcsQ-17" style="edgeStyle=orthogonalEdgeStyle;rounded=0;orthogonalLoop=1;jettySize=auto;html=1;" edge="1" parent="1" source="nxJUqEzjVU8C0fsq4Rj--7" target="dkv0e34ILGbEo7m2tcsQ-16">
          <mxGeometry relative="1" as="geometry" />
        </mxCell>
        <mxCell id="nxJUqEzjVU8C0fsq4Rj--7" value="&lt;strong&gt;Service du Portail Étudiant et Enseignant&lt;/strong&gt;" style="whiteSpace=wrap;html=1;aspect=fixed;" vertex="1" parent="1">
          <mxGeometry x="170" y="450" width="80" height="80" as="geometry" />
        </mxCell>
        <mxCell id="dkv0e34ILGbEo7m2tcsQ-19" style="edgeStyle=orthogonalEdgeStyle;rounded=0;orthogonalLoop=1;jettySize=auto;html=1;entryX=1;entryY=0.5;entryDx=0;entryDy=0;" edge="1" parent="1" source="nxJUqEzjVU8C0fsq4Rj--8" target="dkv0e34ILGbEo7m2tcsQ-18">
          <mxGeometry relative="1" as="geometry" />
        </mxCell>
        <mxCell id="nxJUqEzjVU8C0fsq4Rj--8" value="Service de Prédiction" style="whiteSpace=wrap;html=1;aspect=fixed;" vertex="1" parent="1">
          <mxGeometry x="700" y="420" width="80" height="80" as="geometry" />
        </mxCell>
        <mxCell id="dkv0e34ILGbEo7m2tcsQ-13" style="edgeStyle=orthogonalEdgeStyle;rounded=0;orthogonalLoop=1;jettySize=auto;html=1;entryX=0.5;entryY=0;entryDx=0;entryDy=0;" edge="1" parent="1" source="nxJUqEzjVU8C0fsq4Rj--9" target="dkv0e34ILGbEo7m2tcsQ-12">
          <mxGeometry relative="1" as="geometry" />
        </mxCell>
        <mxCell id="nxJUqEzjVU8C0fsq4Rj--9" value="&lt;strong&gt;Service de Recherche&lt;/strong&gt;" style="whiteSpace=wrap;html=1;aspect=fixed;" vertex="1" parent="1">
          <mxGeometry x="170" y="570" width="80" height="80" as="geometry" />
        </mxCell>
        <mxCell id="dkv0e34ILGbEo7m2tcsQ-15" style="edgeStyle=orthogonalEdgeStyle;rounded=0;orthogonalLoop=1;jettySize=auto;html=1;entryX=0.75;entryY=1;entryDx=0;entryDy=0;" edge="1" parent="1" source="nxJUqEzjVU8C0fsq4Rj--10" target="dkv0e34ILGbEo7m2tcsQ-14">
          <mxGeometry relative="1" as="geometry" />
        </mxCell>
        <mxCell id="nxJUqEzjVU8C0fsq4Rj--10" value="Service de Gestion de la Discipline Étudiante" style="whiteSpace=wrap;html=1;aspect=fixed;" vertex="1" parent="1">
          <mxGeometry x="700" y="540" width="110" height="110" as="geometry" />
        </mxCell>
        <mxCell id="dkv0e34ILGbEo7m2tcsQ-5" style="edgeStyle=orthogonalEdgeStyle;rounded=0;orthogonalLoop=1;jettySize=auto;html=1;entryX=0;entryY=0.25;entryDx=0;entryDy=0;" edge="1" parent="1" source="nxJUqEzjVU8C0fsq4Rj--11" target="dkv0e34ILGbEo7m2tcsQ-4">
          <mxGeometry relative="1" as="geometry" />
        </mxCell>
        <mxCell id="nxJUqEzjVU8C0fsq4Rj--11" value="Service de Gestion des Carrières" style="whiteSpace=wrap;html=1;aspect=fixed;" vertex="1" parent="1">
          <mxGeometry x="180" y="740" width="80" height="80" as="geometry" />
        </mxCell>
        <mxCell id="dkv0e34ILGbEo7m2tcsQ-11" style="edgeStyle=orthogonalEdgeStyle;rounded=0;orthogonalLoop=1;jettySize=auto;html=1;entryX=1;entryY=0.25;entryDx=0;entryDy=0;" edge="1" parent="1" source="nxJUqEzjVU8C0fsq4Rj--12" target="dkv0e34ILGbEo7m2tcsQ-10">
          <mxGeometry relative="1" as="geometry" />
        </mxCell>
        <mxCell id="nxJUqEzjVU8C0fsq4Rj--12" value="Service d&#39;Attribution des Cours" style="whiteSpace=wrap;html=1;aspect=fixed;" vertex="1" parent="1">
          <mxGeometry x="715" y="720" width="80" height="80" as="geometry" />
        </mxCell>
        <mxCell id="nxJUqEzjVU8C0fsq4Rj--17" style="edgeStyle=orthogonalEdgeStyle;rounded=0;orthogonalLoop=1;jettySize=auto;html=1;" edge="1" parent="1" source="nxJUqEzjVU8C0fsq4Rj--13">
          <mxGeometry relative="1" as="geometry">
            <mxPoint x="590" y="880" as="targetPoint" />
          </mxGeometry>
        </mxCell>
        <mxCell id="nxJUqEzjVU8C0fsq4Rj--13" value="Service de Gestion Comptable" style="whiteSpace=wrap;html=1;aspect=fixed;" vertex="1" parent="1">
          <mxGeometry x="470" y="840" width="80" height="80" as="geometry" />
        </mxCell>
        <mxCell id="dkv0e34ILGbEo7m2tcsQ-9" style="edgeStyle=orthogonalEdgeStyle;rounded=0;orthogonalLoop=1;jettySize=auto;html=1;" edge="1" parent="1" source="nxJUqEzjVU8C0fsq4Rj--14" target="dkv0e34ILGbEo7m2tcsQ-8">
          <mxGeometry relative="1" as="geometry" />
        </mxCell>
        <mxCell id="nxJUqEzjVU8C0fsq4Rj--14" value="&lt;strong&gt;Service de Structuration du Programme&lt;/strong&gt;" style="whiteSpace=wrap;html=1;aspect=fixed;" vertex="1" parent="1">
          <mxGeometry x="715" y="840" width="80" height="80" as="geometry" />
        </mxCell>
        <mxCell id="dkv0e34ILGbEo7m2tcsQ-7" style="edgeStyle=orthogonalEdgeStyle;rounded=0;orthogonalLoop=1;jettySize=auto;html=1;entryX=0;entryY=0.5;entryDx=0;entryDy=0;" edge="1" parent="1" source="nxJUqEzjVU8C0fsq4Rj--15" target="dkv0e34ILGbEo7m2tcsQ-6">
          <mxGeometry relative="1" as="geometry" />
        </mxCell>
        <mxCell id="nxJUqEzjVU8C0fsq4Rj--15" value="Service des Frais d&#39;Études" style="whiteSpace=wrap;html=1;aspect=fixed;" vertex="1" parent="1">
          <mxGeometry x="200" y="940" width="80" height="80" as="geometry" />
        </mxCell>
        <mxCell id="dkv0e34ILGbEo7m2tcsQ-3" value="" style="edgeStyle=orthogonalEdgeStyle;rounded=0;orthogonalLoop=1;jettySize=auto;html=1;" edge="1" parent="1" source="nxJUqEzjVU8C0fsq4Rj--16" target="dkv0e34ILGbEo7m2tcsQ-2">
          <mxGeometry relative="1" as="geometry" />
        </mxCell>
        <mxCell id="nxJUqEzjVU8C0fsq4Rj--16" value="&lt;strong&gt;Service d&#39;Inscription&lt;/strong&gt;&amp;nbsp;" style="whiteSpace=wrap;html=1;aspect=fixed;" vertex="1" parent="1">
          <mxGeometry x="450" y="670" width="80" height="80" as="geometry" />
        </mxCell>
        <mxCell id="dkv0e34ILGbEo7m2tcsQ-1" value="8000" style="text;html=1;align=center;verticalAlign=middle;whiteSpace=wrap;rounded=0;" vertex="1" parent="1">
          <mxGeometry x="590" y="870" width="60" height="30" as="geometry" />
        </mxCell>
        <mxCell id="dkv0e34ILGbEo7m2tcsQ-2" value="8081" style="text;html=1;align=center;verticalAlign=middle;whiteSpace=wrap;rounded=0;" vertex="1" parent="1">
          <mxGeometry x="570" y="690" width="60" height="30" as="geometry" />
        </mxCell>
        <mxCell id="dkv0e34ILGbEo7m2tcsQ-4" value="8080" style="text;html=1;align=center;verticalAlign=middle;whiteSpace=wrap;rounded=0;" vertex="1" parent="1">
          <mxGeometry x="310" y="765" width="60" height="30" as="geometry" />
        </mxCell>
        <mxCell id="dkv0e34ILGbEo7m2tcsQ-6" value="8082" style="text;html=1;align=center;verticalAlign=middle;whiteSpace=wrap;rounded=0;" vertex="1" parent="1">
          <mxGeometry x="340" y="950" width="60" height="30" as="geometry" />
        </mxCell>
        <mxCell id="dkv0e34ILGbEo7m2tcsQ-8" value="8083" style="text;html=1;align=center;verticalAlign=middle;whiteSpace=wrap;rounded=0;" vertex="1" parent="1">
          <mxGeometry x="620" y="940" width="60" height="30" as="geometry" />
        </mxCell>
        <mxCell id="dkv0e34ILGbEo7m2tcsQ-10" value="8084" style="text;html=1;align=center;verticalAlign=middle;whiteSpace=wrap;rounded=0;" vertex="1" parent="1">
          <mxGeometry x="620" y="750" width="60" height="30" as="geometry" />
        </mxCell>
        <mxCell id="dkv0e34ILGbEo7m2tcsQ-12" value="8085" style="text;html=1;align=center;verticalAlign=middle;whiteSpace=wrap;rounded=0;" vertex="1" parent="1">
          <mxGeometry x="180" y="690" width="60" height="30" as="geometry" />
        </mxCell>
        <mxCell id="dkv0e34ILGbEo7m2tcsQ-14" value="8086" style="text;html=1;align=center;verticalAlign=middle;whiteSpace=wrap;rounded=0;" vertex="1" parent="1">
          <mxGeometry x="570" y="570" width="60" height="30" as="geometry" />
        </mxCell>
        <mxCell id="dkv0e34ILGbEo7m2tcsQ-16" value="8087" style="text;html=1;align=center;verticalAlign=middle;whiteSpace=wrap;rounded=0;" vertex="1" parent="1">
          <mxGeometry x="340" y="470" width="60" height="30" as="geometry" />
        </mxCell>
        <mxCell id="dkv0e34ILGbEo7m2tcsQ-18" value="8090" style="text;html=1;align=center;verticalAlign=middle;whiteSpace=wrap;rounded=0;" vertex="1" parent="1">
          <mxGeometry x="540" y="460" width="60" height="30" as="geometry" />
        </mxCell>
        <mxCell id="dkv0e34ILGbEo7m2tcsQ-20" value="8091" style="text;html=1;align=center;verticalAlign=middle;whiteSpace=wrap;rounded=0;" vertex="1" parent="1">
          <mxGeometry x="550" y="350" width="60" height="30" as="geometry" />
        </mxCell>
        <mxCell id="dkv0e34ILGbEo7m2tcsQ-22" value="8888" style="text;html=1;align=center;verticalAlign=middle;whiteSpace=wrap;rounded=0;" vertex="1" parent="1">
          <mxGeometry x="310" y="370" width="60" height="30" as="geometry" />
        </mxCell>
        <mxCell id="dkv0e34ILGbEo7m2tcsQ-25" value="8092" style="text;html=1;align=center;verticalAlign=middle;whiteSpace=wrap;rounded=0;" vertex="1" parent="1">
          <mxGeometry x="480" y="220" width="60" height="30" as="geometry" />
        </mxCell>
        <mxCell id="dkv0e34ILGbEo7m2tcsQ-28" value="8093" style="text;html=1;align=center;verticalAlign=middle;whiteSpace=wrap;rounded=0;" vertex="1" parent="1">
          <mxGeometry x="340" y="200" width="60" height="30" as="geometry" />
        </mxCell>
        <mxCell id="dkv0e34ILGbEo7m2tcsQ-30" value="9999" style="text;html=1;align=center;verticalAlign=middle;whiteSpace=wrap;rounded=0;" vertex="1" parent="1">
          <mxGeometry x="300" y="60" width="60" height="30" as="geometry" />
        </mxCell>
        <mxCell id="dkv0e34ILGbEo7m2tcsQ-32" value="8094" style="text;html=1;align=center;verticalAlign=middle;whiteSpace=wrap;rounded=0;" vertex="1" parent="1">
          <mxGeometry x="640" y="70" width="60" height="30" as="geometry" />
        </mxCell>
      </root>
    </mxGraphModel>
  </diagram>
</mxfile>
